# Blender v2.75 (sub 0) OBJ File: ''
# www.blender.org
mtllib ball_3.mtl
o Icosphere_Icosphere.004
v 0.000000 -1.000000 0.000000
v 0.723607 -0.447220 0.525725
v -0.276388 -0.447220 0.850649
v -0.894426 -0.447216 0.000000
v -0.276388 -0.447220 -0.850649
v 0.723607 -0.447220 -0.525725
v 0.276388 0.447220 0.850649
v -0.723607 0.447220 0.525725
v -0.723607 0.447220 -0.525725
v 0.276388 0.447220 -0.850649
v 0.894426 0.447216 0.000000
v 0.000000 1.000000 0.000000
v -0.232822 -0.657519 0.716563
v -0.162456 -0.850654 0.499995
v -0.077607 -0.967950 0.238853
v 0.203181 -0.967950 0.147618
v 0.425323 -0.850654 0.309011
v 0.609547 -0.657519 0.442856
v 0.531941 -0.502302 0.681712
v 0.262869 -0.525738 0.809012
v -0.029639 -0.502302 0.864184
v 0.812729 -0.502301 -0.295238
v 0.850648 -0.525736 0.000000
v 0.812729 -0.502301 0.295238
v 0.203181 -0.967950 -0.147618
v 0.425323 -0.850654 -0.309011
v 0.609547 -0.657519 -0.442856
v -0.753442 -0.657515 0.000000
v -0.525730 -0.850652 0.000000
v -0.251147 -0.967949 0.000000
v -0.483971 -0.502302 0.716565
v -0.688189 -0.525736 0.499997
v -0.831051 -0.502299 0.238853
v -0.232822 -0.657519 -0.716563
v -0.162456 -0.850654 -0.499995
v -0.077607 -0.967950 -0.238853
v -0.831051 -0.502299 -0.238853
v -0.688189 -0.525736 -0.499997
v -0.483971 -0.502302 -0.716565
v -0.029639 -0.502302 -0.864184
v 0.262869 -0.525738 -0.809012
v 0.531941 -0.502302 -0.681712
v 0.956626 0.251149 0.147618
v 0.951058 -0.000000 0.309013
v 0.860698 -0.251151 0.442858
v 0.860698 -0.251151 -0.442858
v 0.951058 0.000000 -0.309013
v 0.956626 0.251149 -0.147618
v 0.155215 0.251152 0.955422
v 0.000000 -0.000000 1.000000
v -0.155215 -0.251152 0.955422
v 0.687159 -0.251152 0.681715
v 0.587786 0.000000 0.809017
v 0.436007 0.251152 0.864188
v -0.860698 0.251151 0.442858
v -0.951058 -0.000000 0.309013
v -0.956626 -0.251149 0.147618
v -0.436007 -0.251152 0.864188
v -0.587786 0.000000 0.809017
v -0.687159 0.251152 0.681715
v -0.687159 0.251152 -0.681715
v -0.587786 -0.000000 -0.809017
v -0.436007 -0.251152 -0.864188
v -0.956626 -0.251149 -0.147618
v -0.951058 0.000000 -0.309013
v -0.860698 0.251151 -0.442858
v 0.436007 0.251152 -0.864188
v 0.587786 -0.000000 -0.809017
v 0.687159 -0.251152 -0.681715
v -0.155215 -0.251152 -0.955422
v 0.000000 0.000000 -1.000000
v 0.155215 0.251152 -0.955422
v 0.831051 0.502299 0.238853
v 0.688189 0.525736 0.499997
v 0.483971 0.502302 0.716565
v 0.029639 0.502302 0.864184
v -0.262869 0.525738 0.809012
v -0.531941 0.502302 0.681712
v -0.812729 0.502301 0.295238
v -0.850648 0.525736 0.000000
v -0.812729 0.502301 -0.295238
v -0.531941 0.502302 -0.681712
v -0.262869 0.525738 -0.809012
v 0.029639 0.502302 -0.864184
v 0.483971 0.502302 -0.716565
v 0.688189 0.525736 -0.499997
v 0.831051 0.502299 -0.238853
v 0.077607 0.967950 0.238853
v 0.162456 0.850654 0.499995
v 0.232822 0.657519 0.716563
v 0.753442 0.657515 0.000000
v 0.525730 0.850652 0.000000
v 0.251147 0.967949 0.000000
v -0.203181 0.967950 0.147618
v -0.425323 0.850654 0.309011
v -0.609547 0.657519 0.442856
v -0.203181 0.967950 -0.147618
v -0.425323 0.850654 -0.309011
v -0.609547 0.657519 -0.442856
v 0.077607 0.967950 -0.238853
v 0.162456 0.850654 -0.499995
v 0.232822 0.657519 -0.716563
v 0.361800 0.894429 -0.262863
v 0.638194 0.723610 -0.262864
v 0.447209 0.723612 -0.525728
v -0.138197 0.894430 -0.425319
v -0.052790 0.723612 -0.688185
v -0.361804 0.723612 -0.587778
v -0.447210 0.894429 0.000000
v -0.670817 0.723611 -0.162457
v -0.670817 0.723611 0.162457
v -0.138197 0.894430 0.425319
v -0.361804 0.723612 0.587778
v -0.052790 0.723612 0.688185
v 0.361800 0.894429 0.262863
v 0.447209 0.723612 0.525728
v 0.638194 0.723610 0.262864
v 0.861804 0.276396 -0.425322
v 0.809019 0.000000 -0.587782
v 0.670821 0.276397 -0.688189
v -0.138199 0.276397 -0.951055
v -0.309016 -0.000000 -0.951057
v -0.447215 0.276397 -0.850649
v -0.947213 0.276396 -0.162458
v -1.000000 0.000001 0.000000
v -0.947213 0.276397 0.162458
v -0.447216 0.276397 0.850648
v -0.309017 -0.000001 0.951056
v -0.138199 0.276397 0.951055
v 0.670820 0.276396 0.688190
v 0.809019 -0.000002 0.587783
v 0.861804 0.276394 0.425323
v 0.309017 -0.000000 -0.951056
v 0.447216 -0.276398 -0.850648
v 0.138199 -0.276398 -0.951055
v -0.809018 -0.000000 -0.587783
v -0.670819 -0.276397 -0.688191
v -0.861803 -0.276396 -0.425324
v -0.809018 0.000000 0.587783
v -0.861803 -0.276396 0.425324
v -0.670819 -0.276397 0.688191
v 0.309017 0.000000 0.951056
v 0.138199 -0.276398 0.951055
v 0.447216 -0.276398 0.850648
v 1.000000 0.000000 0.000000
v 0.947213 -0.276396 0.162458
v 0.947213 -0.276396 -0.162458
v 0.361803 -0.723612 -0.587779
v 0.138197 -0.894429 -0.425321
v 0.052789 -0.723611 -0.688186
v -0.447211 -0.723612 -0.525727
v -0.361801 -0.894429 -0.262863
v -0.638195 -0.723609 -0.262863
v -0.638195 -0.723609 0.262864
v -0.361801 -0.894428 0.262864
v -0.447211 -0.723610 0.525729
v 0.670817 -0.723611 -0.162457
v 0.670818 -0.723610 0.162458
v 0.447211 -0.894428 0.000001
v 0.052790 -0.723612 0.688185
v 0.138199 -0.894429 0.425321
v 0.361805 -0.723611 0.587779
vt 0.000000 0.000000
vt 1.000000 0.000000
vt 1.000000 1.000000
vn 0.048200 -0.987800 0.148200
vn 0.723000 -0.554500 0.412100
vn -0.126100 -0.987800 0.091600
vn -0.126100 -0.987800 -0.091600
vn 0.048200 -0.987800 -0.148200
vn 0.819300 -0.398700 0.412100
vn -0.138700 -0.398700 0.906500
vn -0.905000 -0.398700 0.148200
vn -0.420600 -0.398700 -0.814900
vn 0.645100 -0.398700 -0.651900
vn 0.771100 -0.302400 0.560300
vn -0.294500 -0.302400 0.906500
vn -0.953200 -0.302400 0.000000
vn -0.294500 -0.302400 -0.906500
vn 0.771100 -0.302400 -0.560300
vn 0.342700 0.554500 0.758300
vn -0.615300 0.554500 0.560300
vn -0.723000 0.554500 -0.412100
vn 0.168500 0.554500 -0.814900
vn 0.827100 0.554500 -0.091600
vn 0.126100 0.987800 -0.091600
vn 0.391200 0.915800 -0.091400
vn 0.644100 0.759400 -0.091500
vn 0.233400 0.957500 -0.169600
vn 0.207900 0.915800 -0.343800
vn 0.516800 0.836300 -0.183000
vn 0.491100 0.794700 -0.356800
vn 0.333800 0.836300 -0.435000
vn 0.286000 0.759400 -0.584300
vn 0.752000 0.636900 -0.169600
vn 0.726100 0.595500 -0.343800
vn 0.598700 0.672600 -0.435000
vn 0.551300 0.595500 -0.584300
vn 0.393600 0.636900 -0.662800
vn 0.342700 0.554500 -0.758300
vn -0.048200 0.987800 -0.148200
vn 0.033900 0.915800 -0.400300
vn 0.112100 0.759400 -0.640900
vn -0.089100 0.957500 -0.274300
vn -0.262700 0.915800 -0.303900
vn -0.014400 0.836300 -0.548100
vn -0.187600 0.794700 -0.577300
vn -0.310500 0.836300 -0.451900
vn -0.467400 0.759400 -0.452600
vn 0.071100 0.636900 -0.767600
vn -0.102600 0.595500 -0.796800
vn -0.228700 0.672600 -0.703800
vn -0.385400 0.595500 -0.704900
vn -0.508700 0.636900 -0.579200
vn -0.615300 0.554500 -0.560300
vn -0.155800 0.987800 0.000000
vn -0.370200 0.915800 -0.156000
vn -0.574900 0.759400 -0.304600
vn -0.288500 0.957500 0.000000
vn -0.370200 0.915800 0.156000
vn -0.525700 0.836300 -0.155700
vn -0.607100 0.794700 0.000000
vn -0.525700 0.836300 0.155700
vn -0.574900 0.759400 0.304600
vn -0.708100 0.636900 -0.304900
vn -0.789500 0.595500 -0.148700
vn -0.740000 0.672600 0.000000
vn -0.789500 0.595500 0.148700
vn -0.708100 0.636900 0.304900
vn -0.723000 0.554500 0.412100
vn -0.048200 0.987800 0.148200
vn -0.262700 0.915800 0.303900
vn -0.467400 0.759400 0.452600
vn -0.089100 0.957500 0.274300
vn 0.033900 0.915800 0.400300
vn -0.310500 0.836300 0.451900
vn -0.187600 0.794700 0.577300
vn -0.014400 0.836300 0.548100
vn 0.112100 0.759400 0.640900
vn -0.508700 0.636900 0.579200
vn -0.385400 0.595500 0.704900
vn -0.228700 0.672600 0.703800
vn -0.102600 0.595500 0.796800
vn 0.071100 0.636900 0.767600
vn 0.168500 0.554500 0.814900
vn 0.126100 0.987800 0.091600
vn 0.207900 0.915800 0.343800
vn 0.286000 0.759400 0.584300
vn 0.233400 0.957500 0.169600
vn 0.391200 0.915800 0.091500
vn 0.333800 0.836300 0.435000
vn 0.491100 0.794700 0.356800
vn 0.516800 0.836300 0.183000
vn 0.644100 0.759400 0.091500
vn 0.393600 0.636900 0.662800
vn 0.551300 0.595500 0.584300
vn 0.598700 0.672600 0.435000
vn 0.726100 0.595500 0.343800
vn 0.752000 0.636900 0.169600
vn 0.827100 0.554500 0.091600
vn 0.905000 0.398700 -0.148200
vn 0.936600 0.174500 -0.303900
vn 0.888300 -0.078400 -0.452600
vn 0.896300 0.348500 -0.274300
vn 0.803900 0.439900 -0.400300
vn 0.886900 0.096200 -0.451900
vn 0.794700 0.187600 -0.577300
vn 0.754400 0.361100 -0.548100
vn 0.629100 0.439900 -0.640900
vn 0.797200 -0.170200 -0.579200
vn 0.704900 -0.078400 -0.704900
vn 0.703800 0.096200 -0.703800
vn 0.578500 0.174500 -0.796800
vn 0.537900 0.348500 -0.767600
vn 0.420600 0.398700 -0.814900
vn 0.138700 0.398700 -0.906500
vn 0.000400 0.174500 -0.984600
vn -0.156000 -0.078400 -0.984600
vn 0.016000 0.348500 -0.937200
vn -0.132300 0.439900 -0.888300
vn -0.155700 0.096200 -0.983100
vn -0.303500 0.187600 -0.934200
vn -0.288200 0.361100 -0.886900
vn -0.415100 0.439900 -0.796400
vn -0.304500 -0.170200 -0.937200
vn -0.452600 -0.078400 -0.888300
vn -0.451900 0.096200 -0.886900
vn -0.579100 0.174500 -0.796400
vn -0.563800 0.348500 -0.748800
vn -0.645100 0.398700 -0.651900
vn -0.819300 0.398700 -0.412100
vn -0.936300 0.174500 -0.304600
vn -0.984600 -0.078400 -0.156000
vn -0.886400 0.348500 -0.304900
vn -0.885700 0.439900 -0.148700
vn -0.983100 0.096200 -0.155700
vn -0.982200 0.187600 0.000000
vn -0.932500 0.361100 0.000000
vn -0.885700 0.439900 0.148700
vn -0.985400 -0.170200 0.000000
vn -0.984600 -0.078400 0.156000
vn -0.983100 0.096200 0.155700
vn -0.936300 0.174500 0.304600
vn -0.886400 0.348500 0.304900
vn -0.819300 0.398700 0.412100
vn -0.645100 0.398700 0.651900
vn -0.579100 0.174500 0.796400
vn -0.452600 -0.078400 0.888300
vn -0.563800 0.348500 0.748800
vn -0.415100 0.439900 0.796400
vn -0.451900 0.096200 0.886900
vn -0.303500 0.187600 0.934200
vn -0.288200 0.361100 0.886900
vn -0.132300 0.439900 0.888300
vn -0.304500 -0.170200 0.937200
vn -0.156000 -0.078400 0.984600
vn -0.155700 0.096200 0.983100
vn 0.000400 0.174500 0.984600
vn 0.016000 0.348500 0.937200
vn 0.138700 0.398700 0.906500
vn 0.420600 0.398700 0.814900
vn 0.578500 0.174500 0.796800
vn 0.704900 -0.078400 0.704900
vn 0.537900 0.348500 0.767600
vn 0.629100 0.439900 0.640900
vn 0.703800 0.096200 0.703800
vn 0.794700 0.187600 0.577300
vn 0.754400 0.361100 0.548100
vn 0.803900 0.439900 0.400300
vn 0.797200 -0.170200 0.579200
vn 0.888300 -0.078400 0.452600
vn 0.886900 0.096200 0.451900
vn 0.936600 0.174500 0.303900
vn 0.896300 0.348500 0.274400
vn 0.905000 0.398700 0.148200
vn 0.294500 0.302400 -0.906500
vn 0.452600 0.078400 -0.888300
vn 0.579100 -0.174500 -0.796400
vn 0.304500 0.170200 -0.937200
vn 0.156000 0.078400 -0.984600
vn 0.451900 -0.096200 -0.886900
vn 0.303500 -0.187600 -0.934200
vn 0.155700 -0.096200 -0.983100
vn -0.000400 -0.174500 -0.984600
vn 0.563800 -0.348500 -0.748800
vn 0.415100 -0.439900 -0.796400
vn 0.288200 -0.361100 -0.886900
vn 0.132300 -0.439900 -0.888300
vn -0.016000 -0.348500 -0.937200
vn -0.138700 -0.398700 -0.906500
vn -0.771100 0.302400 -0.560300
vn -0.704900 0.078400 -0.704900
vn -0.578500 -0.174500 -0.796800
vn -0.797200 0.170200 -0.579200
vn -0.888300 0.078400 -0.452600
vn -0.703800 -0.096200 -0.703800
vn -0.794700 -0.187600 -0.577300
vn -0.886900 -0.096200 -0.451900
vn -0.936600 -0.174500 -0.303900
vn -0.537900 -0.348500 -0.767600
vn -0.629100 -0.439900 -0.640900
vn -0.754400 -0.361100 -0.548100
vn -0.803900 -0.439900 -0.400300
vn -0.896300 -0.348500 -0.274400
vn -0.905000 -0.398700 -0.148200
vn -0.771100 0.302400 0.560300
vn -0.888300 0.078400 0.452600
vn -0.936600 -0.174500 0.303900
vn -0.797200 0.170200 0.579200
vn -0.704900 0.078400 0.704900
vn -0.886900 -0.096200 0.451900
vn -0.794700 -0.187600 0.577400
vn -0.703800 -0.096200 0.703800
vn -0.578500 -0.174500 0.796800
vn -0.896300 -0.348500 0.274400
vn -0.803900 -0.439900 0.400300
vn -0.754400 -0.361100 0.548100
vn -0.629100 -0.439900 0.640900
vn -0.537900 -0.348500 0.767600
vn -0.420600 -0.398700 0.814900
vn 0.294500 0.302400 0.906500
vn 0.156000 0.078400 0.984600
vn -0.000400 -0.174500 0.984600
vn 0.304500 0.170200 0.937200
vn 0.452600 0.078400 0.888300
vn 0.155700 -0.096200 0.983100
vn 0.303500 -0.187600 0.934200
vn 0.451900 -0.096200 0.886900
vn 0.579100 -0.174500 0.796400
vn -0.016000 -0.348500 0.937200
vn 0.132300 -0.439900 0.888300
vn 0.288200 -0.361100 0.886900
vn 0.415100 -0.439900 0.796400
vn 0.563800 -0.348500 0.748800
vn 0.645100 -0.398700 0.651900
vn 0.953200 0.302400 0.000000
vn 0.984600 0.078400 0.156000
vn 0.936300 -0.174500 0.304600
vn 0.985400 0.170200 0.000000
vn 0.984600 0.078400 -0.156000
vn 0.983100 -0.096200 0.155700
vn 0.982200 -0.187600 0.000000
vn 0.983100 -0.096200 -0.155700
vn 0.936300 -0.174500 -0.304600
vn 0.886400 -0.348500 0.304900
vn 0.885700 -0.439900 0.148700
vn 0.932500 -0.361100 0.000000
vn 0.885700 -0.439900 -0.148700
vn 0.886400 -0.348500 -0.304900
vn 0.819300 -0.398700 -0.412100
vn 0.615300 -0.554500 -0.560300
vn 0.467400 -0.759400 -0.452600
vn 0.262700 -0.915800 -0.303900
vn 0.508700 -0.636900 -0.579200
vn 0.385400 -0.595500 -0.704900
vn 0.310500 -0.836300 -0.451900
vn 0.187600 -0.794700 -0.577300
vn 0.228700 -0.672600 -0.703800
vn 0.102600 -0.595500 -0.796800
vn 0.089100 -0.957500 -0.274300
vn -0.033900 -0.915800 -0.400300
vn 0.014400 -0.836300 -0.548100
vn -0.112100 -0.759400 -0.640900
vn -0.071100 -0.636900 -0.767600
vn -0.168500 -0.554500 -0.814900
vn -0.342700 -0.554500 -0.758300
vn -0.286000 -0.759400 -0.584300
vn -0.207900 -0.915800 -0.343800
vn -0.393600 -0.636900 -0.662800
vn -0.551300 -0.595500 -0.584300
vn -0.333800 -0.836300 -0.435000
vn -0.491100 -0.794700 -0.356800
vn -0.598700 -0.672600 -0.435000
vn -0.726100 -0.595500 -0.343800
vn -0.233400 -0.957500 -0.169600
vn -0.391200 -0.915800 -0.091400
vn -0.516800 -0.836300 -0.183000
vn -0.644100 -0.759400 -0.091400
vn -0.752000 -0.636900 -0.169600
vn -0.827100 -0.554500 -0.091600
vn -0.827100 -0.554500 0.091600
vn -0.644100 -0.759400 0.091500
vn -0.391200 -0.915800 0.091500
vn -0.752000 -0.636900 0.169600
vn -0.726100 -0.595500 0.343800
vn -0.516800 -0.836300 0.183000
vn -0.491100 -0.794700 0.356800
vn -0.598700 -0.672600 0.435000
vn -0.551300 -0.595500 0.584300
vn -0.233400 -0.957500 0.169600
vn -0.207900 -0.915800 0.343800
vn -0.333800 -0.836300 0.435000
vn -0.286000 -0.759400 0.584300
vn -0.393600 -0.636900 0.662800
vn -0.342700 -0.554500 0.758300
vn 0.723000 -0.554500 -0.412100
vn 0.789500 -0.595500 -0.148700
vn 0.789500 -0.595500 0.148700
vn 0.708100 -0.636900 -0.304900
vn 0.574900 -0.759400 -0.304600
vn 0.740000 -0.672600 -0.000000
vn 0.607100 -0.794700 0.000000
vn 0.525700 -0.836300 -0.155700
vn 0.370200 -0.915800 -0.155900
vn 0.708100 -0.636900 0.304900
vn 0.574900 -0.759400 0.304600
vn 0.525700 -0.836300 0.155700
vn 0.370200 -0.915800 0.156000
vn 0.288500 -0.957500 0.000000
vn 0.155800 -0.987800 0.000000
vn -0.168500 -0.554500 0.814900
vn -0.112100 -0.759400 0.640900
vn -0.033900 -0.915800 0.400300
vn -0.071100 -0.636900 0.767600
vn 0.102600 -0.595500 0.796800
vn 0.014400 -0.836300 0.548100
vn 0.187600 -0.794700 0.577300
vn 0.228700 -0.672600 0.703800
vn 0.385400 -0.595500 0.704900
vn 0.089100 -0.957500 0.274400
vn 0.262700 -0.915800 0.303900
vn 0.310500 -0.836300 0.451900
vn 0.467400 -0.759400 0.452600
vn 0.508700 -0.636900 0.579200
vn 0.615300 -0.554500 0.560300
usemtl None
s off
f 1/1/1 16/2/1 15/3/1
f 2/1/2 18/2/2 24/3/2
f 1/1/3 15/2/3 30/3/3
f 1/1/4 30/2/4 36/3/4
f 1/1/5 36/2/5 25/3/5
f 2/1/6 24/2/6 45/3/6
f 3/1/7 21/2/7 51/3/7
f 4/1/8 33/2/8 57/3/8
f 5/1/9 39/2/9 63/3/9
f 6/1/10 42/2/10 69/3/10
f 2/1/11 45/2/11 52/3/11
f 3/1/12 51/2/12 58/3/12
f 4/1/13 57/2/13 64/3/13
f 5/1/14 63/2/14 70/3/14
f 6/1/15 69/2/15 46/3/15
f 7/1/16 75/2/16 90/3/16
f 8/1/17 78/2/17 96/3/17
f 9/1/18 81/2/18 99/3/18
f 10/1/19 84/2/19 102/3/19
f 11/1/20 87/2/20 91/3/20
f 93/1/21 100/2/21 12/3/21
f 92/1/22 103/2/22 93/3/22
f 91/1/23 104/2/23 92/3/23
f 93/1/24 103/2/24 100/3/24
f 103/1/25 101/2/25 100/3/25
f 92/1/26 104/2/26 103/3/26
f 104/1/27 105/2/27 103/3/27
f 103/1/28 105/2/28 101/3/28
f 105/1/29 102/2/29 101/3/29
f 91/1/30 87/2/30 104/3/30
f 87/1/31 86/2/31 104/3/31
f 104/1/32 86/2/32 105/3/32
f 86/1/33 85/2/33 105/3/33
f 105/1/34 85/2/34 102/3/34
f 85/1/35 10/2/35 102/3/35
f 100/1/36 97/2/36 12/3/36
f 101/1/37 106/2/37 100/3/37
f 102/1/38 107/2/38 101/3/38
f 100/1/39 106/2/39 97/3/39
f 106/1/40 98/2/40 97/3/40
f 101/1/41 107/2/41 106/3/41
f 107/1/42 108/2/42 106/3/42
f 106/1/43 108/2/43 98/3/43
f 108/1/44 99/2/44 98/3/44
f 102/1/45 84/2/45 107/3/45
f 84/1/46 83/2/46 107/3/46
f 107/1/47 83/2/47 108/3/47
f 83/1/48 82/2/48 108/3/48
f 108/1/49 82/2/49 99/3/49
f 82/1/50 9/2/50 99/3/50
f 97/1/51 94/2/51 12/3/51
f 98/1/52 109/2/52 97/3/52
f 99/1/53 110/2/53 98/3/53
f 97/1/54 109/2/54 94/3/54
f 109/1/55 95/2/55 94/3/55
f 98/1/56 110/2/56 109/3/56
f 110/1/57 111/2/57 109/3/57
f 109/1/58 111/2/58 95/3/58
f 111/1/59 96/2/59 95/3/59
f 99/1/60 81/2/60 110/3/60
f 81/1/61 80/2/61 110/3/61
f 110/1/62 80/2/62 111/3/62
f 80/1/63 79/2/63 111/3/63
f 111/1/64 79/2/64 96/3/64
f 79/1/65 8/2/65 96/3/65
f 94/1/66 88/2/66 12/3/66
f 95/1/67 112/2/67 94/3/67
f 96/1/68 113/2/68 95/3/68
f 94/1/69 112/2/69 88/3/69
f 112/1/70 89/2/70 88/3/70
f 95/1/71 113/2/71 112/3/71
f 113/1/72 114/2/72 112/3/72
f 112/1/73 114/2/73 89/3/73
f 114/1/74 90/2/74 89/3/74
f 96/1/75 78/2/75 113/3/75
f 78/1/76 77/2/76 113/3/76
f 113/1/77 77/2/77 114/3/77
f 77/1/78 76/2/78 114/3/78
f 114/1/79 76/2/79 90/3/79
f 76/1/80 7/2/80 90/3/80
f 88/1/81 93/2/81 12/3/81
f 89/1/82 115/2/82 88/3/82
f 90/1/83 116/2/83 89/3/83
f 88/1/84 115/2/84 93/3/84
f 115/1/85 92/2/85 93/3/85
f 89/1/86 116/2/86 115/3/86
f 116/1/87 117/2/87 115/3/87
f 115/1/88 117/2/88 92/3/88
f 117/1/89 91/2/89 92/3/89
f 90/1/90 75/2/90 116/3/90
f 75/1/91 74/2/91 116/3/91
f 116/1/92 74/2/92 117/3/92
f 74/1/93 73/2/93 117/3/93
f 117/1/94 73/2/94 91/3/94
f 73/1/95 11/2/95 91/3/95
f 48/1/96 87/2/96 11/3/96
f 47/1/97 118/2/97 48/3/97
f 46/1/98 119/2/98 47/3/98
f 48/1/99 118/2/99 87/3/99
f 118/1/100 86/2/100 87/3/100
f 47/1/101 119/2/101 118/3/101
f 119/1/102 120/2/102 118/3/102
f 118/1/103 120/2/103 86/3/103
f 120/1/104 85/2/104 86/3/104
f 46/1/105 69/2/105 119/3/105
f 69/1/106 68/2/106 119/3/106
f 119/1/107 68/2/107 120/3/107
f 68/1/108 67/2/108 120/3/108
f 120/1/109 67/2/109 85/3/109
f 67/1/110 10/2/110 85/3/110
f 72/1/111 84/2/111 10/3/111
f 71/1/112 121/2/112 72/3/112
f 70/1/113 122/2/113 71/3/113
f 72/1/114 121/2/114 84/3/114
f 121/1/115 83/2/115 84/3/115
f 71/1/116 122/2/116 121/3/116
f 122/1/117 123/2/117 121/3/117
f 121/1/118 123/2/118 83/3/118
f 123/1/119 82/2/119 83/3/119
f 70/1/120 63/2/120 122/3/120
f 63/1/121 62/2/121 122/3/121
f 122/1/122 62/2/122 123/3/122
f 62/1/123 61/2/123 123/3/123
f 123/1/124 61/2/124 82/3/124
f 61/1/125 9/2/125 82/3/125
f 66/1/126 81/2/126 9/3/126
f 65/1/127 124/2/127 66/3/127
f 64/1/128 125/2/128 65/3/128
f 66/1/129 124/2/129 81/3/129
f 124/1/130 80/2/130 81/3/130
f 65/1/131 125/2/131 124/3/131
f 125/1/132 126/2/132 124/3/132
f 124/1/133 126/2/133 80/3/133
f 126/1/134 79/2/134 80/3/134
f 64/1/135 57/2/135 125/3/135
f 57/1/136 56/2/136 125/3/136
f 125/1/137 56/2/137 126/3/137
f 56/1/138 55/2/138 126/3/138
f 126/1/139 55/2/139 79/3/139
f 55/1/140 8/2/140 79/3/140
f 60/1/141 78/2/141 8/3/141
f 59/1/142 127/2/142 60/3/142
f 58/1/143 128/2/143 59/3/143
f 60/1/144 127/2/144 78/3/144
f 127/1/145 77/2/145 78/3/145
f 59/1/146 128/2/146 127/3/146
f 128/1/147 129/2/147 127/3/147
f 127/1/148 129/2/148 77/3/148
f 129/1/149 76/2/149 77/3/149
f 58/1/150 51/2/150 128/3/150
f 51/1/151 50/2/151 128/3/151
f 128/1/152 50/2/152 129/3/152
f 50/1/153 49/2/153 129/3/153
f 129/1/154 49/2/154 76/3/154
f 49/1/155 7/2/155 76/3/155
f 54/1/156 75/2/156 7/3/156
f 53/1/157 130/2/157 54/3/157
f 52/1/158 131/2/158 53/3/158
f 54/1/159 130/2/159 75/3/159
f 130/1/160 74/2/160 75/3/160
f 53/1/161 131/2/161 130/3/161
f 131/1/162 132/2/162 130/3/162
f 130/1/163 132/2/163 74/3/163
f 132/1/164 73/2/164 74/3/164
f 52/1/165 45/2/165 131/3/165
f 45/1/166 44/2/166 131/3/166
f 131/1/167 44/2/167 132/3/167
f 44/1/168 43/2/168 132/3/168
f 132/1/169 43/2/169 73/3/169
f 43/1/170 11/2/170 73/3/170
f 67/1/171 72/2/171 10/3/171
f 68/1/172 133/2/172 67/3/172
f 69/1/173 134/2/173 68/3/173
f 67/1/174 133/2/174 72/3/174
f 133/1/175 71/2/175 72/3/175
f 68/1/176 134/2/176 133/3/176
f 134/1/177 135/2/177 133/3/177
f 133/1/178 135/2/178 71/3/178
f 135/1/179 70/2/179 71/3/179
f 69/1/180 42/2/180 134/3/180
f 42/1/181 41/2/181 134/3/181
f 134/1/182 41/2/182 135/3/182
f 41/1/183 40/2/183 135/3/183
f 135/1/184 40/2/184 70/3/184
f 40/1/185 5/2/185 70/3/185
f 61/1/186 66/2/186 9/3/186
f 62/1/187 136/2/187 61/3/187
f 63/1/188 137/2/188 62/3/188
f 61/1/189 136/2/189 66/3/189
f 136/1/190 65/2/190 66/3/190
f 62/1/191 137/2/191 136/3/191
f 137/1/192 138/2/192 136/3/192
f 136/1/193 138/2/193 65/3/193
f 138/1/194 64/2/194 65/3/194
f 63/1/195 39/2/195 137/3/195
f 39/1/196 38/2/196 137/3/196
f 137/1/197 38/2/197 138/3/197
f 38/1/198 37/2/198 138/3/198
f 138/1/199 37/2/199 64/3/199
f 37/1/200 4/2/200 64/3/200
f 55/1/201 60/2/201 8/3/201
f 56/1/202 139/2/202 55/3/202
f 57/1/203 140/2/203 56/3/203
f 55/1/204 139/2/204 60/3/204
f 139/1/205 59/2/205 60/3/205
f 56/1/206 140/2/206 139/3/206
f 140/1/207 141/2/207 139/3/207
f 139/1/208 141/2/208 59/3/208
f 141/1/209 58/2/209 59/3/209
f 57/1/210 33/2/210 140/3/210
f 33/1/211 32/2/211 140/3/211
f 140/1/212 32/2/212 141/3/212
f 32/1/213 31/2/213 141/3/213
f 141/1/214 31/2/214 58/3/214
f 31/1/215 3/2/215 58/3/215
f 49/1/216 54/2/216 7/3/216
f 50/1/217 142/2/217 49/3/217
f 51/1/218 143/2/218 50/3/218
f 49/1/219 142/2/219 54/3/219
f 142/1/220 53/2/220 54/3/220
f 50/1/221 143/2/221 142/3/221
f 143/1/222 144/2/222 142/3/222
f 142/1/223 144/2/223 53/3/223
f 144/1/224 52/2/224 53/3/224
f 51/1/225 21/2/225 143/3/225
f 21/1/226 20/2/226 143/3/226
f 143/1/227 20/2/227 144/3/227
f 20/1/228 19/2/228 144/3/228
f 144/1/229 19/2/229 52/3/229
f 19/1/230 2/2/230 52/3/230
f 43/1/231 48/2/231 11/3/231
f 44/1/232 145/2/232 43/3/232
f 45/1/233 146/2/233 44/3/233
f 43/1/234 145/2/234 48/3/234
f 145/1/235 47/2/235 48/3/235
f 44/1/236 146/2/236 145/3/236
f 146/1/237 147/2/237 145/3/237
f 145/1/238 147/2/238 47/3/238
f 147/1/239 46/2/239 47/3/239
f 45/1/240 24/2/240 146/3/240
f 24/1/241 23/2/241 146/3/241
f 146/1/242 23/2/242 147/3/242
f 23/1/243 22/2/243 147/3/243
f 147/1/244 22/2/244 46/3/244
f 22/1/245 6/2/245 46/3/245
f 27/1/246 42/2/246 6/3/246
f 26/1/247 148/2/247 27/3/247
f 25/1/248 149/2/248 26/3/248
f 27/1/249 148/2/249 42/3/249
f 148/1/250 41/2/250 42/3/250
f 26/1/251 149/2/251 148/3/251
f 149/1/252 150/2/252 148/3/252
f 148/1/253 150/2/253 41/3/253
f 150/1/254 40/2/254 41/3/254
f 25/1/255 36/2/255 149/3/255
f 36/1/256 35/2/256 149/3/256
f 149/1/257 35/2/257 150/3/257
f 35/1/258 34/2/258 150/3/258
f 150/1/259 34/2/259 40/3/259
f 34/1/260 5/2/260 40/3/260
f 34/1/261 39/2/261 5/3/261
f 35/1/262 151/2/262 34/3/262
f 36/1/263 152/2/263 35/3/263
f 34/1/264 151/2/264 39/3/264
f 151/1/265 38/2/265 39/3/265
f 35/1/266 152/2/266 151/3/266
f 152/1/267 153/2/267 151/3/267
f 151/1/268 153/2/268 38/3/268
f 153/1/269 37/2/269 38/3/269
f 36/1/270 30/2/270 152/3/270
f 30/1/271 29/2/271 152/3/271
f 152/1/272 29/2/272 153/3/272
f 29/1/273 28/2/273 153/3/273
f 153/1/274 28/2/274 37/3/274
f 28/1/275 4/2/275 37/3/275
f 28/1/276 33/2/276 4/3/276
f 29/1/277 154/2/277 28/3/277
f 30/1/278 155/2/278 29/3/278
f 28/1/279 154/2/279 33/3/279
f 154/1/280 32/2/280 33/3/280
f 29/1/281 155/2/281 154/3/281
f 155/1/282 156/2/282 154/3/282
f 154/1/283 156/2/283 32/3/283
f 156/1/284 31/2/284 32/3/284
f 30/1/285 15/2/285 155/3/285
f 15/1/286 14/2/286 155/3/286
f 155/1/287 14/2/287 156/3/287
f 14/1/288 13/2/288 156/3/288
f 156/1/289 13/2/289 31/3/289
f 13/1/290 3/2/290 31/3/290
f 22/1/291 27/2/291 6/3/291
f 23/1/292 157/2/292 22/3/292
f 24/1/293 158/2/293 23/3/293
f 22/1/294 157/2/294 27/3/294
f 157/1/295 26/2/295 27/3/295
f 23/1/296 158/2/296 157/3/296
f 158/1/297 159/2/297 157/3/297
f 157/1/298 159/2/298 26/3/298
f 159/1/299 25/2/299 26/3/299
f 24/1/300 18/2/300 158/3/300
f 18/1/301 17/2/301 158/3/301
f 158/1/302 17/2/302 159/3/302
f 17/1/303 16/2/303 159/3/303
f 159/1/304 16/2/304 25/3/304
f 16/1/305 1/2/305 25/3/305
f 13/1/306 21/2/306 3/3/306
f 14/1/307 160/2/307 13/3/307
f 15/1/308 161/2/308 14/3/308
f 13/1/309 160/2/309 21/3/309
f 160/1/310 20/2/310 21/3/310
f 14/1/311 161/2/311 160/3/311
f 161/1/312 162/2/312 160/3/312
f 160/1/313 162/2/313 20/3/313
f 162/1/314 19/2/314 20/3/314
f 15/1/315 16/2/315 161/3/315
f 16/1/316 17/2/316 161/3/316
f 161/1/317 17/2/317 162/3/317
f 17/1/318 18/2/318 162/3/318
f 162/1/319 18/2/319 19/3/319
f 18/1/320 2/2/320 19/3/320
