# Blender v2.75 (sub 0) OBJ File: ''
# www.blender.org
mtllib space_ship_1.mtl
o Plane
v 0.661220 0.052000 1.319759
v 0.906702 0.034286 0.507661
v -0.001167 -0.067893 -0.507903
v 0.978171 0.034230 -0.368923
v 0.230472 -0.008234 1.319708
v 0.055011 0.000000 1.388141
v -0.001167 -0.044662 -0.543958
v 0.610714 -0.061317 -0.463463
v 0.865054 0.045160 -1.970050
v 0.726956 0.024764 -1.853760
v 0.608798 0.170989 1.313908
v 0.836487 0.192935 0.507661
v -0.001167 0.342442 0.571709
v 0.916088 0.192879 -0.200942
v 0.307176 0.170993 1.314105
v 0.117686 0.184834 1.388141
v -0.001167 0.358982 -0.229197
v 0.708475 0.232908 -0.201013
v 0.808639 0.170058 -1.755413
v 0.729286 0.154367 -1.639870
v -0.001167 0.055250 -0.624060
v 0.490489 0.062270 -0.550277
v -0.001457 0.101867 -0.621824
v 0.468555 0.123105 -0.519850
v 0.632570 0.246131 0.118485
v 0.538466 0.250885 0.342636
v 0.395486 0.336634 0.488019
v 0.401801 0.251635 0.704482
v 0.441852 0.330191 -0.208444
v 0.617603 -0.061034 -0.421427
v 0.565688 -0.080534 0.311120
v 0.367160 -0.086399 1.149132
v 0.194979 -0.035350 1.320651
v 0.693016 0.034286 1.320539
v 0.292685 0.192935 1.313214
v 0.623126 0.192935 1.313102
v 0.265140 0.018253 1.343173
v 0.630163 0.069303 1.343383
v 0.321330 0.149560 1.339361
v 0.594802 0.149553 1.339080
v 0.230472 -0.008234 1.344094
v 0.661220 0.052000 1.344145
v 0.307176 0.170993 1.338491
v 0.608798 0.170989 1.338293
v 0.265277 0.016471 1.297068
v 0.630300 0.067521 1.297278
v 0.321467 0.147778 1.293256
v 0.594940 0.147771 1.292975
v 0.461558 0.343078 -0.186321
v 0.491075 0.109914 -0.532785
v -0.000949 0.098568 -0.588375
v 0.439341 0.314402 -0.196905
v 0.466044 0.107317 -0.508311
v 0.899908 0.034230 -2.030735
v 0.703839 -0.000056 -1.858650
v 0.829694 0.192879 -1.750657
v 0.703839 0.174418 -1.578572
v 0.834503 0.064928 -0.614335
v 0.747501 0.052079 -0.541072
v 0.798961 0.143614 -0.479113
v 0.748969 0.133728 -0.406321
v 0.000000 -0.116955 1.000000
v -0.661220 0.052000 1.319759
v 0.000000 -0.116955 -0.001072
v -0.906702 0.034286 0.507661
v -0.978171 0.034230 -0.368923
v 0.000000 -0.082881 1.155787
v -0.230472 -0.008234 1.319708
v 0.000000 0.000000 1.388620
v -0.055011 0.000000 1.388141
v -0.610714 -0.061317 -0.463463
v -0.865054 0.045160 -1.970050
v -0.726956 0.024764 -1.853760
v 0.000000 0.240901 1.000000
v -0.608798 0.170989 1.313908
v 0.000000 0.273021 0.791179
v -0.836487 0.192935 0.507661
v -0.916088 0.192879 -0.200942
v 0.000000 0.226067 1.191148
v -0.307176 0.170993 1.314105
v 0.000000 0.184834 1.388620
v -0.117686 0.184834 1.388141
v -0.708475 0.232908 -0.201013
v -0.808639 0.170058 -1.755413
v -0.729286 0.154367 -1.639870
v -0.490489 0.062270 -0.550277
v -0.468555 0.123105 -0.519850
v -0.632570 0.246131 0.118485
v -0.538466 0.250885 0.342636
v -0.395486 0.336634 0.488019
v -0.401801 0.251635 0.704482
v -0.441852 0.330191 -0.208444
v -0.617603 -0.061034 -0.421427
v -0.565688 -0.080534 0.311120
v -0.367160 -0.086399 1.149132
v -0.194979 -0.035350 1.320651
v -0.693016 0.034286 1.320539
v -0.292685 0.192935 1.313214
v -0.623126 0.192935 1.313102
v -0.265140 0.018253 1.343173
v -0.630163 0.069303 1.343383
v -0.321330 0.149560 1.339361
v -0.594802 0.149553 1.339080
v -0.230472 -0.008234 1.344094
v -0.661220 0.052000 1.344145
v -0.307176 0.170993 1.338491
v -0.608798 0.170989 1.338293
v -0.265277 0.016471 1.297068
v -0.630300 0.067521 1.297278
v -0.321467 0.147778 1.293256
v -0.594940 0.147771 1.292975
v -0.461558 0.343078 -0.186321
v -0.491075 0.109914 -0.532785
v -0.000524 0.346096 -0.241967
v 0.000000 0.114357 -0.599914
v 0.000000 0.330307 -0.230427
v -0.439341 0.314402 -0.196905
v -0.466044 0.107317 -0.508311
v -0.899908 0.034230 -2.030735
v -0.703839 -0.000056 -1.858650
v -0.829694 0.192879 -1.750657
v -0.703839 0.174418 -1.578572
v -0.834503 0.064928 -0.614335
v -0.747501 0.052079 -0.541072
v -0.798961 0.143614 -0.479113
v -0.748969 0.133728 -0.406321
vn 0.286600 -0.956100 0.061200
vn 0.256500 -0.966500 -0.007600
vn 0.127100 -0.908500 0.398000
vn 0.002900 -0.942100 0.335400
vn 0.260200 -0.964900 -0.036100
vn 0.165600 -0.986200 -0.007800
vn 0.034700 0.995900 0.083400
vn 0.089900 0.927900 0.361700
vn 0.080300 0.993800 0.077100
vn 0.000800 0.978900 0.204400
vn 0.033200 0.999400 0.012800
vn -0.135000 0.990800 0.007500
vn 0.889100 0.393500 0.233700
vn 0.884400 0.464900 -0.041600
vn 0.004100 -0.001400 1.000000
vn -0.946100 0.323800 -0.010600
vn 0.395200 -0.139600 0.907900
vn 0.953600 0.290900 0.077700
vn 0.325400 0.797100 -0.508700
vn -1.000000 -0.006600 0.003200
vn 0.999800 0.008100 -0.015800
vn 0.138500 -0.990400 0.000000
vn 0.147600 0.048300 -0.987900
vn 0.125000 -0.620600 -0.774100
vn 0.715300 0.233100 -0.658800
vn 0.210100 0.977400 0.023500
vn 0.189300 0.981900 0.004300
vn 0.409700 0.910300 0.059700
vn 0.683300 0.677400 0.272500
vn -0.147200 0.589400 0.794300
vn 0.048300 -0.839600 -0.541000
vn -0.005500 -0.976900 0.213700
vn 0.064200 -0.997900 0.000000
vn 0.024500 -0.995000 -0.096400
vn -0.005700 0.042100 0.999100
vn 0.000700 0.036300 0.999300
vn 0.002100 0.047800 0.998900
vn -0.008600 0.034900 0.999400
vn -0.915300 -0.402600 0.012800
vn -0.919300 0.393500 0.000000
vn 0.000000 1.000000 0.000000
vn 0.915100 0.403200 0.000000
vn -0.006100 0.042700 0.999100
vn 0.001000 0.036000 0.999400
vn 0.003800 0.050800 0.998700
vn -0.010600 0.033600 0.999400
vn 0.001000 0.054000 0.998500
vn -0.138400 0.989600 -0.038700
vn 0.919400 -0.392900 0.017900
vn 0.000000 -0.999300 0.038600
vn 0.099400 0.778000 -0.620300
vn 0.072000 0.833400 -0.548000
vn 0.077000 0.830200 -0.552100
vn -0.989800 0.064200 -0.127600
vn -0.504500 0.751500 -0.425100
vn -0.714900 0.520400 -0.467000
vn -0.571100 0.635300 -0.519800
vn -0.631400 0.666200 -0.396800
vn -0.674600 0.634500 -0.377100
vn 0.167000 -0.985800 -0.019200
vn -0.920700 -0.390000 -0.015100
vn -0.160900 0.986800 -0.018000
vn -0.308400 -0.947800 0.081100
vn -0.306000 -0.951700 0.025000
vn -0.127100 -0.908500 0.398000
vn -0.002900 -0.942100 0.335400
vn -0.260200 -0.964900 -0.036100
vn -0.165600 -0.986200 -0.007800
vn -0.151500 0.987600 0.040100
vn -0.080300 0.993800 0.077100
vn -0.000800 0.978900 0.204400
vn 0.135000 0.990800 0.007500
vn -0.885500 0.401100 0.234600
vn -0.910600 0.410100 -0.050800
vn -0.004100 -0.001400 1.000000
vn 0.946100 0.323800 -0.010600
vn 1.000000 0.000000 0.000000
vn -0.395200 -0.139600 0.907900
vn -0.909700 0.402600 0.102200
vn -0.325400 0.797100 -0.508700
vn -0.999800 0.008100 -0.015800
vn -0.138500 -0.990400 0.000000
vn -0.715300 0.233100 -0.658800
vn -0.210100 0.977400 0.023500
vn -0.189300 0.981900 0.004300
vn -0.409700 0.910300 0.059700
vn -0.683300 0.677400 0.272500
vn 0.005500 -0.976900 0.213700
vn -0.078300 -0.996900 0.011600
vn 0.005700 0.042100 0.999100
vn -0.000300 0.040800 0.999200
vn -0.002100 0.047800 0.998900
vn -0.002500 0.031500 0.999500
vn 0.915300 -0.402600 0.012800
vn 0.919300 0.393500 0.000000
vn -0.915100 0.403200 0.000000
vn 0.006100 0.042700 0.999100
vn -0.000700 0.041000 0.999200
vn -0.003800 0.050800 0.998700
vn -0.004000 0.029600 0.999600
vn -0.001000 0.054000 0.998500
vn 0.138400 0.989600 -0.038700
vn -0.919400 -0.392900 0.017900
vn -0.077000 0.830200 -0.552100
vn -0.040100 -0.590500 -0.806100
vn 0.989800 0.064200 -0.127600
vn 0.504500 0.751500 -0.425100
vn 0.714900 0.520400 -0.467000
vn 0.670000 0.561300 -0.485900
vn 0.517600 0.726300 -0.452400
vn 0.674600 0.634500 -0.377100
vn -0.167000 -0.985800 -0.019200
vn 0.920700 -0.390000 -0.015100
vn 0.160900 0.986800 -0.018000
vn 0.078800 0.703700 -0.706100
vn 0.039800 -0.593700 -0.803700
vn -0.090400 0.927900 0.361700
vn -0.033300 0.999400 0.012800
vn -0.163000 0.338300 -0.926800
vn -0.125600 -0.620600 -0.774000
vn 0.146800 0.598800 0.787300
vn -0.010400 -0.999900 0.005000
vn -0.075900 -0.996900 -0.021200
vn -0.080200 0.828600 -0.554100
vn -0.099900 0.778300 -0.619800
vn -0.077500 0.837000 -0.541700
vn 0.308400 -0.947800 0.081100
vn 0.306000 -0.951700 0.025000
vn -0.067600 -0.934600 0.349400
vn 0.257600 -0.965900 -0.025200
vn 0.085100 0.984800 0.151500
vn 0.159400 0.985500 0.058200
vn 0.151500 0.987600 0.040100
vn 0.114900 0.947300 0.299000
vn 0.000100 0.988500 0.151300
vn 0.033900 0.982100 0.185300
vn 0.019000 0.999600 0.020600
vn 0.189200 0.981000 -0.042300
vn 0.885500 0.401100 0.234600
vn 0.910600 0.410100 -0.050800
vn 0.008700 0.000000 1.000000
vn -0.993100 0.099400 -0.061900
vn 0.402100 -0.136400 0.905400
vn 0.909700 0.402600 0.102200
vn -1.000000 -0.004800 0.001800
vn 0.162000 0.338300 -0.927000
vn 0.099000 -0.505700 -0.857000
vn 0.750800 0.282900 -0.596900
vn 0.164800 0.985100 0.048300
vn 0.423400 0.904500 0.050100
vn 0.673700 0.694400 0.253000
vn -0.145800 0.598800 0.787500
vn 0.010400 -0.999900 0.005000
vn -0.004100 -0.959600 0.281500
vn 0.078300 -0.996900 0.011600
vn 0.075900 -0.996900 -0.021200
vn -0.005000 0.035000 0.999400
vn 0.000300 0.040800 0.999200
vn -0.011400 0.044100 0.999000
vn 0.002500 0.031500 0.999500
vn -0.005400 0.034300 0.999400
vn 0.000700 0.041000 0.999200
vn -0.015500 0.046800 0.998800
vn 0.004000 0.029600 0.999600
vn -0.004900 0.031100 0.999500
vn 0.068900 0.864700 -0.497500
vn 0.077200 0.836800 -0.542000
vn 0.177200 0.826500 -0.534400
vn -0.554800 0.624900 -0.549200
vn -0.649200 0.672900 -0.354500
vn -0.670000 0.561300 -0.485900
vn -0.517600 0.726300 -0.452400
vn -0.539300 0.658500 -0.524900
vn -0.286600 -0.956100 0.061200
vn -0.256500 -0.966500 -0.007600
vn 0.067600 -0.934600 0.349400
vn -0.257600 -0.965900 -0.025200
vn -0.034700 0.995900 0.083400
vn -0.159400 0.985500 0.058200
vn -0.085100 0.984800 0.151500
vn -0.000100 0.988500 0.151300
vn -0.033900 0.982100 0.185300
vn -0.189200 0.981000 -0.042300
vn -0.889100 0.393500 0.233700
vn -0.884400 0.464900 -0.041600
vn -0.008700 0.000000 1.000000
vn 0.993100 0.099400 -0.061900
vn -0.402100 -0.136400 0.905400
vn -0.953600 0.290900 0.077700
vn -0.750800 0.282900 -0.596900
vn -0.164800 0.985100 0.048300
vn -0.423400 0.904500 0.050100
vn -0.673700 0.694400 0.253000
vn 0.004100 -0.959600 0.281500
vn -0.064200 -0.997900 0.000000
vn 0.005000 0.035000 0.999400
vn -0.000700 0.036300 0.999300
vn 0.011400 0.044100 0.999000
vn 0.008600 0.034900 0.999400
vn 0.005400 0.034300 0.999400
vn -0.001000 0.036000 0.999400
vn 0.015500 0.046800 0.998800
vn 0.010600 0.033600 0.999400
vn 0.004900 0.031100 0.999500
vn -0.177200 0.826500 -0.534400
vn -0.039700 -0.593700 -0.803700
vn 0.554800 0.624900 -0.549200
vn 0.649200 0.672900 -0.354500
vn 0.571100 0.635300 -0.519800
vn 0.631400 0.666200 -0.396800
vn 0.539300 0.658500 -0.524900
vn 0.079800 0.828800 -0.553900
vn 0.040000 -0.588700 -0.807300
vn -0.115200 0.946900 0.300100
vn -0.019100 0.999600 0.020600
vn -0.148300 0.046500 -0.987900
vn -0.099400 -0.505400 -0.857100
vn 0.147900 0.577800 0.802700
vn -0.048500 -0.839600 -0.541000
vn -0.024600 -0.995100 -0.096300
vn -0.079200 0.699700 -0.710000
vn -0.067600 0.868700 -0.490700
vn -0.072000 0.833400 -0.548000
usemtl None
s off
f 32//1 31//1 2//1
f 31//2 30//2 4//2
f 34//3 33//3 32//3
f 6//4 69//4 67//4
f 30//5 8//5 4//5
f 55//6 54//6 4//6
f 74//7 36//7 28//7
f 28//8 27//8 13//8
f 74//9 79//9 35//9
f 79//10 81//10 16//10
f 27//11 49//11 17//11
f 14//12 56//12 57//12
f 34//13 2//13 12//13
f 4//14 54//14 56//14
f 6//15 16//15 81//15
f 8//16 18//16 57//16
f 33//17 35//17 16//17
f 2//18 4//18 14//18
f 49//19 18//19 50//19
f 64//20 76//20 13//20
f 20//21 61//21 59//21
f 1//22 42//22 41//22
f 22//23 21//23 23//23
f 7//24 21//24 22//24
f 8//25 22//25 50//25
f 12//26 14//26 25//26
f 25//27 14//27 18//27
f 25//28 18//28 49//28
f 26//29 25//29 27//29
f 115//30 51//30 53//30
f 3//31 7//31 8//31
f 67//32 62//32 32//32
f 62//33 64//33 31//33
f 64//34 3//34 30//34
f 5//35 33//35 34//35
f 15//36 11//36 36//36
f 1//37 34//37 36//37
f 5//38 15//38 35//38
f 40//39 48//39 46//39
f 5//40 41//40 43//40
f 15//41 43//41 44//41
f 1//42 11//42 44//42
f 37//43 41//43 42//43
f 39//44 40//44 44//44
f 38//45 42//45 44//45
f 37//46 39//46 43//46
f 46//47 48//47 47//47
f 37//48 38//48 46//48
f 37//49 45//49 47//49
f 40//50 39//50 47//50
f 24//51 50//51 23//51
f 116//52 52//52 53//52
f 29//53 49//53 50//53
f 29//54 24//54 53//54
f 9//55 54//55 55//55
f 20//56 57//56 56//56
f 9//57 19//57 56//57
f 20//58 10//58 55//58
f 59//59 61//59 60//59
f 20//60 19//60 60//60
f 19//61 9//61 58//61
f 10//62 59//62 58//62
f 95//63 97//63 65//63
f 94//64 65//64 66//64
f 97//65 95//65 96//65
f 67//66 69//66 70//66
f 93//67 66//67 71//67
f 66//68 119//68 120//68
f 99//69 91//69 77//69
f 98//70 79//70 74//70
f 82//71 81//71 79//71
f 122//72 121//72 78//72
f 97//73 99//73 77//73
f 66//74 78//74 121//74
f 81//75 82//75 70//75
f 122//76 83//76 71//76
f 79//77 81//77 69//77
f 82//78 98//78 96//78
f 65//79 77//79 78//79
f 112//80 113//80 83//80
f 76//77 74//77 62//77
f 74//77 79//77 67//77
f 124//81 126//81 85//81
f 104//82 105//82 63//82
f 113//83 86//83 71//83
f 88//84 78//84 77//84
f 88//85 83//85 78//85
f 112//86 83//86 88//86
f 90//87 88//87 89//87
f 95//88 62//88 67//88
f 62//89 95//89 94//89
f 97//90 96//90 68//90
f 80//91 98//91 99//91
f 99//92 97//92 63//92
f 68//93 96//93 98//93
f 109//94 111//94 103//94
f 106//95 104//95 68//95
f 107//41 106//41 80//41
f 63//96 105//96 107//96
f 105//97 104//97 100//97
f 102//98 106//98 107//98
f 107//99 105//99 101//99
f 100//100 104//100 106//100
f 110//101 111//101 109//101
f 100//102 108//102 109//102
f 110//103 108//103 100//103
f 103//50 111//50 110//50
f 113//104 112//104 92//104
f 114//105 116//105 117//105
f 92//106 117//106 118//106
f 120//107 119//107 72//107
f 121//108 122//108 85//108
f 72//109 119//109 121//109
f 85//110 122//110 120//110
f 125//111 126//111 124//111
f 85//112 126//112 125//112
f 84//113 125//113 123//113
f 123//114 124//114 73//114
f 29//115 114//115 17//115
f 29//116 52//116 116//116
f 13//117 90//117 91//117
f 17//118 112//118 90//118
f 86//119 113//119 23//119
f 86//120 21//120 7//120
f 87//121 118//121 51//121
f 3//122 93//122 71//122
f 64//123 94//123 93//123
f 92//124 112//124 17//124
f 23//125 113//125 87//125
f 116//126 51//126 118//126
f 34//127 32//127 2//127
f 2//128 31//128 4//128
f 33//129 6//129 67//129
f 8//130 55//130 4//130
f 28//131 76//131 74//131
f 12//132 26//132 28//132
f 28//133 36//133 12//133
f 76//134 28//134 13//134
f 36//135 74//135 35//135
f 35//136 79//136 16//136
f 13//137 27//137 17//137
f 18//138 14//138 57//138
f 36//139 34//139 12//139
f 14//140 4//140 56//140
f 69//141 6//141 81//141
f 55//142 8//142 57//142
f 6//143 33//143 16//143
f 12//144 2//144 14//144
f 3//145 64//145 13//145
f 10//21 20//21 59//21
f 5//22 1//22 41//22
f 50//146 22//146 23//146
f 8//147 7//147 22//147
f 18//148 8//148 50//148
f 26//149 12//149 25//149
f 27//150 25//150 49//150
f 28//151 26//151 27//151
f 24//152 115//152 53//152
f 30//153 3//153 8//153
f 33//154 67//154 32//154
f 32//155 62//155 31//155
f 31//156 64//156 30//156
f 1//157 5//157 34//157
f 35//158 15//158 36//158
f 11//159 1//159 36//159
f 33//160 5//160 35//160
f 38//39 40//39 46//39
f 15//40 5//40 43//40
f 11//41 15//41 44//41
f 42//42 1//42 44//42
f 38//161 37//161 42//161
f 43//162 39//162 44//162
f 40//163 38//163 44//163
f 41//164 37//164 43//164
f 45//165 46//165 47//165
f 45//48 37//48 46//48
f 39//49 37//49 47//49
f 48//50 40//50 47//50
f 115//166 24//166 23//166
f 51//167 116//167 53//167
f 24//168 29//168 50//168
f 52//54 29//54 53//54
f 10//169 9//169 55//169
f 19//170 20//170 56//170
f 54//171 9//171 56//171
f 57//172 20//172 55//172
f 58//173 59//173 60//173
f 61//60 20//60 60//60
f 60//61 19//61 58//61
f 9//62 10//62 58//62
f 94//174 95//174 65//174
f 93//175 94//175 66//175
f 96//176 67//176 70//176
f 71//177 66//177 120//177
f 91//178 99//178 74//178
f 91//179 89//179 77//179
f 74//180 76//180 91//180
f 99//181 98//181 74//181
f 98//182 82//182 79//182
f 83//183 122//183 78//183
f 65//184 97//184 77//184
f 119//185 66//185 121//185
f 69//186 81//186 70//186
f 120//187 122//187 71//187
f 67//77 79//77 69//77
f 70//188 82//188 96//188
f 66//189 65//189 78//189
f 64//77 76//77 62//77
f 62//77 74//77 67//77
f 73//81 124//81 85//81
f 68//82 104//82 63//82
f 83//190 113//190 71//190
f 89//191 88//191 77//191
f 90//192 112//192 88//192
f 91//193 90//193 89//193
f 96//194 95//194 67//194
f 64//195 62//195 94//195
f 63//196 97//196 68//196
f 75//197 80//197 99//197
f 75//198 99//198 63//198
f 80//199 68//199 98//199
f 101//94 109//94 103//94
f 80//95 106//95 68//95
f 75//41 107//41 80//41
f 75//96 63//96 107//96
f 101//200 105//200 100//200
f 103//201 102//201 107//201
f 103//202 107//202 101//202
f 102//203 100//203 106//203
f 108//204 110//204 109//204
f 101//102 100//102 109//102
f 102//103 110//103 100//103
f 102//50 103//50 110//50
f 87//205 113//205 92//205
f 92//206 114//206 117//206
f 87//106 92//106 118//106
f 73//207 120//207 72//207
f 84//208 121//208 85//208
f 84//209 72//209 121//209
f 73//210 85//210 120//210
f 123//211 125//211 124//211
f 84//112 85//112 125//112
f 72//113 84//113 123//113
f 72//114 123//114 73//114
f 49//212 29//212 17//212
f 114//213 29//213 116//213
f 76//214 13//214 91//214
f 13//215 17//215 90//215
f 21//216 86//216 23//216
f 71//217 86//217 7//217
f 115//218 87//218 51//218
f 7//219 3//219 71//219
f 3//220 64//220 93//220
f 114//221 92//221 17//221
f 115//222 23//222 87//222
f 117//223 116//223 118//223
