# Blender v2.75 (sub 0) OBJ File: ''
# www.blender.org
mtllib space_ship_1.mtl
o Plane
v 0.367160 -0.086399 1.149132
v 0.565688 -0.080534 0.311120
v 0.906702 0.034286 0.507661
v 0.617603 -0.061034 -0.421427
v 0.978171 0.034230 -0.368923
v 0.693016 0.034286 1.320539
v 0.194979 -0.035350 1.320651
v 0.055011 -0.000000 1.388141
v 0.000000 -0.000000 1.388620
v 0.000000 -0.082881 1.155787
v 0.610714 -0.061317 -0.463463
v 0.703839 -0.000056 -1.858650
v 0.899908 0.034230 -2.030735
v 0.000000 0.240901 1.000000
v 0.623126 0.192935 1.313102
v 0.401801 0.251635 0.704482
v 0.395486 0.336634 0.488019
v -0.001167 0.342442 0.571709
v 0.000000 0.226067 1.191148
v 0.292685 0.192935 1.313214
v 0.000000 0.184834 1.388620
v 0.117686 0.184834 1.388141
v 0.461558 0.343078 -0.186321
v -0.001167 0.358982 -0.229197
v 0.916088 0.192879 -0.200942
v 0.829694 0.192879 -1.750657
v 0.703839 0.174418 -1.578572
v 0.836487 0.192935 0.507661
v 0.708475 0.232908 -0.201013
v 0.491075 0.109914 -0.532785
v 0.000000 -0.116955 -0.001072
v 0.000000 0.273021 0.791179
v 0.729286 0.154367 -1.639870
v 0.748969 0.133728 -0.406321
v 0.747501 0.052079 -0.541072
v 0.661220 0.052000 1.319759
v 0.661220 0.052000 1.344145
v 0.230472 -0.008234 1.344094
v 0.490489 0.062270 -0.550277
v -0.001167 0.055250 -0.624060
v -0.001457 0.101867 -0.621824
v -0.001167 -0.044662 -0.543958
v 0.632570 0.246131 0.118485
v 0.538466 0.250885 0.342636
v 0.000000 0.114357 -0.599914
v -0.000949 0.098568 -0.588375
v 0.466044 0.107317 -0.508311
v -0.001167 -0.067893 -0.507903
v 0.000000 -0.116955 1.000000
v 0.230472 -0.008234 1.319708
v 0.307176 0.170993 1.314105
v 0.608798 0.170989 1.313908
v 0.594802 0.149553 1.339080
v 0.594940 0.147771 1.292975
v 0.630300 0.067521 1.297278
v 0.307176 0.170993 1.338491
v 0.608798 0.170989 1.338293
v 0.265140 0.018253 1.343173
v 0.321330 0.149560 1.339361
v 0.630163 0.069303 1.343383
v 0.321467 0.147778 1.293256
v 0.265277 0.016471 1.297068
v 0.468555 0.123105 -0.519850
v 0.000000 0.330307 -0.230427
v 0.439341 0.314402 -0.196905
v 0.441852 0.330191 -0.208444
v 0.865054 0.045160 -1.970050
v 0.808639 0.170058 -1.755413
v 0.726956 0.024764 -1.853760
v 0.798961 0.143614 -0.479113
v 0.834503 0.064928 -0.614335
v -0.367160 -0.086399 1.149132
v -0.693016 0.034286 1.320539
v -0.906702 0.034286 0.507661
v -0.565688 -0.080534 0.311120
v -0.978171 0.034230 -0.368923
v -0.194979 -0.035350 1.320651
v -0.055011 -0.000000 1.388141
v -0.617603 -0.061034 -0.421427
v -0.610714 -0.061317 -0.463463
v -0.899908 0.034230 -2.030735
v -0.703839 -0.000056 -1.858650
v -0.623126 0.192935 1.313102
v -0.401801 0.251635 0.704482
v -0.836487 0.192935 0.507661
v -0.292685 0.192935 1.313214
v -0.117686 0.184834 1.388141
v -0.703839 0.174418 -1.578572
v -0.829694 0.192879 -1.750657
v -0.916088 0.192879 -0.200942
v -0.708475 0.232908 -0.201013
v -0.461558 0.343078 -0.186321
v -0.491075 0.109914 -0.532785
v -0.747501 0.052079 -0.541072
v -0.748969 0.133728 -0.406321
v -0.729286 0.154367 -1.639870
v -0.230472 -0.008234 1.344094
v -0.661220 0.052000 1.344145
v -0.661220 0.052000 1.319759
v -0.490489 0.062270 -0.550277
v -0.632570 0.246131 0.118485
v -0.395486 0.336634 0.488019
v -0.538466 0.250885 0.342636
v -0.230472 -0.008234 1.319708
v -0.307176 0.170993 1.314105
v -0.630300 0.067521 1.297278
v -0.594940 0.147771 1.292975
v -0.594802 0.149553 1.339080
v -0.307176 0.170993 1.338491
v -0.608798 0.170989 1.338293
v -0.265140 0.018253 1.343173
v -0.321330 0.149560 1.339361
v -0.630163 0.069303 1.343383
v -0.321467 0.147778 1.293256
v -0.265277 0.016471 1.297068
v -0.441852 0.330191 -0.208444
v -0.000524 0.346096 -0.241967
v -0.439341 0.314402 -0.196905
v -0.466044 0.107317 -0.508311
v -0.865054 0.045160 -1.970050
v -0.798961 0.143614 -0.479113
v -0.808639 0.170058 -1.755413
v -0.834503 0.064928 -0.614335
v -0.726956 0.024764 -1.853760
v -0.468555 0.123105 -0.519850
v -0.608798 0.170989 1.313908
vt 0.102514 0.759462
vt 0.107282 0.591982
vt 0.148594 0.612625
vt 0.139858 0.492458
vt 0.165916 0.500892
vt 0.163132 0.746459
vt 0.119364 0.832405
vt 0.133546 0.930775
vt 0.129971 0.999933
vt 0.008171 0.834084
vt 0.142487 0.477792
vt 0.144765 0.075978
vt 0.147767 0.000067
vt 0.307885 0.693524
vt 0.173493 0.744849
vt 0.219357 0.628224
vt 0.209762 0.587521
vt 0.256390 0.556831
vt 0.314502 0.779161
vt 0.208413 0.772887
vt 0.274119 0.897349
vt 0.230583 0.847162
vt 0.167703 0.529731
vt 0.184138 0.513903
vt 0.150693 0.533464
vt 0.145909 0.095112
vt 0.135521 0.150830
vt 0.159692 0.606887
vt 0.146085 0.530869
vt 0.154312 0.488676
vt 0.314636 0.060166
vt 0.369111 0.128085
vt 0.360879 0.154110
vt 0.141998 0.119960
vt 0.126550 0.258640
vt 0.128785 0.245493
vt 0.162967 0.748594
vt 0.163166 0.748798
vt 0.137921 0.811717
vt 0.148468 0.482495
vt 0.133410 0.471619
vt 0.141700 0.477336
vt 0.123581 0.463262
vt 0.168685 0.560758
vt 0.187893 0.580672
vt 0.149836 0.482594
vt 0.157801 0.487590
vt 0.150703 0.500313
vt 0.109789 0.455457
vt 0.000067 0.750248
vt 0.032747 0.518803
vt 0.133291 0.817930
vt 0.197521 0.776450
vt 0.172748 0.747567
vt 0.170805 0.751867
vt 0.169009 0.754355
vt 0.163594 0.752120
vt 0.190198 0.778363
vt 0.171688 0.749539
vt 0.149090 0.800147
vt 0.181387 0.781246
vt 0.163010 0.750990
vt 0.173550 0.781705
vt 0.153456 0.794013
vt 0.152569 0.494879
vt 0.175667 0.506090
vt 0.163249 0.520761
vt 0.165398 0.524432
vt 0.146108 0.038602
vt 0.144144 0.091467
vt 0.144323 0.074703
vt 0.123242 0.251398
vt 0.127069 0.237181
vt 0.260220 0.436729
vt 0.266867 0.455645
vt 0.221564 0.470522
vt 0.205069 0.452405
vt 0.182897 0.484978
vt 0.277348 0.436017
vt 0.270548 0.408513
vt 0.301356 0.425511
vt 0.295552 0.430281
vt 0.171060 0.480926
vt 0.177780 0.481297
vt 0.170318 0.478104
vt 0.171512 0.478615
vt 0.270756 0.460005
vt 0.254014 0.502888
vt 0.226269 0.480437
vt 0.283105 0.466124
vt 0.308902 0.485397
vt 0.296367 0.507975
vt 0.299829 0.456872
vt 0.314502 0.454325
vt 0.172879 0.478276
vt 0.171580 0.478711
vt 0.190334 0.484205
vt 0.190775 0.486146
vt 0.355311 0.201537
vt 0.350422 0.224953
vt 0.328504 0.224953
vt 0.191727 0.496305
vt 0.173881 0.486323
vt 0.357070 0.178871
vt 0.314636 0.178871
vt 0.318677 0.197344
vt 0.174237 0.478600
vt 0.174451 0.478594
vt 0.172238 0.478490
vt 0.277158 0.443427
vt 0.268352 0.456091
vt 0.267920 0.455835
vt 0.169894 0.484382
vt 0.209411 0.492748
vt 0.240096 0.513543
vt 0.224804 0.501064
vt 0.250391 0.404603
vt 0.277337 0.441364
vt 0.281523 0.462747
vt 0.269736 0.456394
vt 0.271117 0.457480
vt 0.270920 0.458250
vt 0.280353 0.460563
vt 0.270846 0.458794
vt 0.277140 0.447631
vt 0.279070 0.457811
vt 0.269193 0.456213
vt 0.277632 0.455807
vt 0.276843 0.449604
vt 0.189817 0.495504
vt 0.179928 0.510021
vt 0.188713 0.494703
vt 0.176885 0.482443
vt 0.170888 0.478347
vt 0.174346 0.478522
vt 0.171650 0.478564
vt 0.174100 0.478565
vt 0.171492 0.478506
vt 0.175295 0.484427
vt 0.162918 0.420906
vt 0.296417 0.617861
vt 0.320454 0.000067
vt 0.283466 0.533364
vt 0.270818 0.459372
vn 0.286600 -0.956100 0.061200
vn 0.256500 -0.966500 -0.007600
vn 0.127100 -0.908500 0.398000
vn 0.002900 -0.942100 0.335400
vn 0.260200 -0.964900 -0.036100
vn 0.165600 -0.986200 -0.007800
vn 0.034700 0.995900 0.083400
vn 0.089900 0.927900 0.361700
vn 0.080300 0.993800 0.077100
vn 0.000800 0.978900 0.204400
vn 0.033200 0.999400 0.012800
vn -0.135000 0.990800 0.007500
vn 0.889100 0.393500 0.233700
vn 0.884400 0.464900 -0.041600
vn 0.004100 -0.001400 1.000000
vn -0.946100 0.323800 -0.010600
vn 0.395200 -0.139600 0.907900
vn 0.953600 0.290900 0.077700
vn 0.325400 0.797100 -0.508700
vn 1.000000 0.006600 -0.003200
vn 0.999800 0.008100 -0.015800
vn 0.138500 -0.990400 -0.000000
vn 0.147600 0.048300 -0.987900
vn 0.125000 -0.620600 -0.774100
vn 0.715300 0.233100 -0.658800
vn 0.210100 0.977400 0.023500
vn 0.189300 0.981900 0.004300
vn 0.409700 0.910300 0.059700
vn 0.683300 0.677400 0.272500
vn -0.147200 0.589400 0.794300
vn 0.048300 -0.839600 -0.541000
vn -0.005500 -0.976900 0.213700
vn 0.064300 -0.997900 -0.000000
vn 0.024500 -0.995000 -0.096400
vn -0.005700 0.042200 0.999100
vn 0.000700 0.036300 0.999300
vn 0.002100 0.047700 0.998900
vn -0.008600 0.034900 0.999400
vn -0.915300 -0.402600 0.012800
vn -0.919300 0.393500 0.000000
vn 0.000000 1.000000 0.000000
vn 0.915100 0.403200 0.000000
vn -0.006100 0.042700 0.999100
vn 0.001000 0.036000 0.999400
vn 0.003800 0.050800 0.998700
vn -0.010600 0.033600 0.999400
vn 0.001000 0.054000 0.998500
vn -0.138400 0.989600 -0.038700
vn 0.919400 -0.392900 0.017900
vn 0.000000 -0.999300 0.038600
vn 0.099400 0.778000 -0.620300
vn 0.072000 0.833400 -0.548000
vn 0.077000 0.830200 -0.552100
vn -0.989800 0.064200 -0.127600
vn -0.504500 0.751500 -0.425100
vn -0.714900 0.520400 -0.467000
vn -0.571200 0.635300 -0.519800
vn -0.631400 0.666200 -0.396800
vn -0.674600 0.634500 -0.377100
vn 0.167000 -0.985800 -0.019200
vn -0.920700 -0.390000 -0.015100
vn -0.160900 0.986800 -0.018000
vn -0.308400 -0.947800 0.081100
vn -0.306000 -0.951700 0.025000
vn -0.127100 -0.908500 0.398000
vn -0.002900 -0.942100 0.335400
vn -0.260200 -0.964900 -0.036100
vn -0.165600 -0.986200 -0.007800
vn -0.151500 0.987600 0.040100
vn -0.080300 0.993800 0.077100
vn -0.000800 0.978900 0.204400
vn 0.135000 0.990800 0.007500
vn -0.885500 0.401100 0.234600
vn -0.910600 0.410100 -0.050800
vn -0.004100 -0.001400 1.000000
vn 0.946100 0.323800 -0.010600
vn 1.000000 0.000000 0.000000
vn -0.395200 -0.139600 0.907900
vn -0.909700 0.402600 0.102200
vn -0.325400 0.797100 -0.508700
vn -0.999800 0.008100 -0.015800
vn -0.138500 -0.990400 -0.000000
vn -0.715300 0.233100 -0.658800
vn -0.210100 0.977400 0.023500
vn -0.189300 0.981900 0.004300
vn -0.409700 0.910300 0.059700
vn -0.683300 0.677400 0.272500
vn 0.005500 -0.976900 0.213700
vn -0.078300 -0.996900 0.011600
vn 0.005700 0.042200 0.999100
vn -0.000300 0.040800 0.999200
vn -0.002100 0.047700 0.998900
vn -0.002500 0.031500 0.999500
vn 0.915300 -0.402600 0.012800
vn 0.919300 0.393500 0.000000
vn -0.915100 0.403200 0.000000
vn 0.006100 0.042700 0.999100
vn -0.000700 0.041000 0.999200
vn -0.003800 0.050800 0.998700
vn -0.004000 0.029500 0.999600
vn -0.001000 0.054000 0.998500
vn 0.138400 0.989600 -0.038700
vn -0.919400 -0.392900 0.017900
vn -0.077000 0.830200 -0.552100
vn -0.040100 -0.590500 -0.806100
vn 0.989800 0.064200 -0.127600
vn 0.504500 0.751500 -0.425100
vn 0.714900 0.520400 -0.467000
vn 0.670000 0.561300 -0.485900
vn 0.517600 0.726300 -0.452400
vn 0.674600 0.634500 -0.377100
vn -0.167000 -0.985800 -0.019200
vn 0.920700 -0.390000 -0.015100
vn 0.160900 0.986800 -0.018000
vn 0.078800 0.703700 -0.706100
vn 0.039800 -0.593700 -0.803700
vn -0.090400 0.927900 0.361700
vn -0.033300 0.999400 0.012800
vn -0.163000 0.338300 -0.926800
vn -0.125600 -0.620600 -0.774000
vn 0.146800 0.598800 0.787300
vn -0.010400 -0.999900 0.005000
vn -0.075900 -0.996900 -0.021200
vn -0.080200 0.828600 -0.554100
vn -0.099900 0.778400 -0.619800
vn -0.077500 0.837000 -0.541700
vn 0.308400 -0.947800 0.081100
vn 0.306000 -0.951700 0.025000
vn -0.067600 -0.934600 0.349400
vn 0.257600 -0.965900 -0.025200
vn 0.085100 0.984800 0.151500
vn 0.159400 0.985500 0.058200
vn 0.151500 0.987600 0.040100
vn 0.114900 0.947300 0.299000
vn 0.000100 0.988500 0.151300
vn 0.033900 0.982100 0.185300
vn 0.019000 0.999600 0.020600
vn 0.189200 0.981000 -0.042300
vn 0.885500 0.401100 0.234600
vn 0.910600 0.410100 -0.050800
vn 0.008700 0.000000 1.000000
vn -0.993100 0.099400 -0.061900
vn 0.402100 -0.136400 0.905400
vn 0.909700 0.402600 0.102200
vn 1.000000 0.004800 -0.001800
vn 0.162000 0.338300 -0.927000
vn 0.099000 -0.505700 -0.857000
vn 0.750800 0.282900 -0.596900
vn 0.164800 0.985100 0.048300
vn 0.423400 0.904500 0.050100
vn 0.673700 0.694400 0.253000
vn -0.145800 0.598800 0.787500
vn 0.010400 -0.999900 0.005000
vn -0.004100 -0.959600 0.281500
vn 0.078300 -0.996900 0.011600
vn 0.075900 -0.996900 -0.021200
vn -0.005000 0.035000 0.999400
vn 0.000300 0.040800 0.999200
vn -0.011400 0.044100 0.999000
vn 0.002500 0.031500 0.999500
vn -0.005400 0.034400 0.999400
vn 0.000700 0.041000 0.999200
vn -0.015400 0.046800 0.998800
vn 0.004000 0.029500 0.999600
vn -0.004900 0.031100 0.999500
vn 0.068900 0.864700 -0.497500
vn 0.077200 0.836800 -0.542000
vn 0.177100 0.826500 -0.534400
vn -0.554800 0.624900 -0.549200
vn -0.649300 0.672900 -0.354500
vn -0.670000 0.561300 -0.485900
vn -0.517600 0.726300 -0.452400
vn -0.539300 0.658500 -0.524900
vn -0.286600 -0.956100 0.061200
vn -0.256500 -0.966500 -0.007600
vn 0.067600 -0.934600 0.349400
vn -0.257600 -0.965900 -0.025200
vn -0.034700 0.995900 0.083400
vn -0.159400 0.985500 0.058200
vn -0.085100 0.984800 0.151500
vn -0.000100 0.988500 0.151300
vn -0.033900 0.982100 0.185300
vn -0.189200 0.981000 -0.042300
vn -0.889100 0.393500 0.233700
vn -0.884400 0.464900 -0.041600
vn -0.008700 0.000000 1.000000
vn 0.993100 0.099400 -0.061900
vn -0.402100 -0.136400 0.905400
vn -0.953600 0.290900 0.077700
vn -0.750800 0.282900 -0.596900
vn -0.164800 0.985100 0.048300
vn -0.423400 0.904500 0.050100
vn -0.673700 0.694400 0.253000
vn 0.004100 -0.959600 0.281500
vn -0.064300 -0.997900 -0.000000
vn 0.005000 0.035000 0.999400
vn -0.000700 0.036300 0.999300
vn 0.011400 0.044100 0.999000
vn 0.008600 0.034900 0.999400
vn 0.005400 0.034400 0.999400
vn -0.001000 0.036000 0.999400
vn 0.015400 0.046800 0.998800
vn 0.010600 0.033600 0.999400
vn 0.004900 0.031100 0.999500
vn -0.177100 0.826500 -0.534400
vn -0.039700 -0.593700 -0.803700
vn 0.554800 0.624900 -0.549200
vn 0.649300 0.672900 -0.354500
vn 0.571200 0.635300 -0.519800
vn 0.631400 0.666200 -0.396800
vn 0.539300 0.658500 -0.524900
vn 0.079800 0.828800 -0.553900
vn 0.040000 -0.588700 -0.807300
vn -0.115200 0.946900 0.300100
vn -0.019100 0.999600 0.020600
vn -0.148300 0.046500 -0.987900
vn -0.099400 -0.505400 -0.857100
vn 0.147900 0.577700 0.802700
vn -0.048500 -0.839600 -0.541000
vn -0.024600 -0.995100 -0.096300
vn -0.079200 0.699700 -0.710000
vn -0.067600 0.868700 -0.490700
vn -0.072000 0.833400 -0.548000
usemtl None
s off
f 1/1/1 2/2/1 3/3/1
f 2/2/2 4/4/2 5/5/2
f 6/6/3 7/7/3 1/1/3
f 8/8/4 9/9/4 10/10/4
f 4/4/5 11/11/5 5/5/5
f 12/12/6 13/13/6 5/5/6
f 14/14/7 15/15/7 16/16/7
f 16/16/8 17/17/8 18/18/8
f 14/14/9 19/19/9 20/20/9
f 19/19/10 21/21/10 22/22/10
f 17/17/11 23/23/11 24/24/11
f 25/25/12 26/26/12 27/27/12
f 6/6/13 3/3/13 28/28/13
f 5/5/14 13/13/14 26/26/14
f 8/8/15 22/22/15 21/21/15
f 11/11/16 29/29/16 27/27/16
f 7/7/17 20/20/17 22/22/17
f 3/3/18 5/5/18 25/25/18
f 23/23/19 29/29/19 30/30/19
f 31/31/20 18/32/20 32/33/20
f 33/34/21 34/35/21 35/36/21
f 36/37/22 37/38/22 38/39/22
f 39/40/23 40/41/23 41/42/23
f 42/43/24 40/41/24 39/40/24
f 11/11/25 39/40/25 30/30/25
f 28/28/26 25/25/26 43/44/26
f 43/44/27 25/25/27 29/29/27
f 43/44/28 29/29/28 23/23/28
f 44/45/29 43/44/29 17/17/29
f 45/46/30 46/47/30 47/48/30
f 48/49/31 42/43/31 11/11/31
f 10/10/32 49/50/32 1/1/32
f 49/50/33 31/51/33 2/2/33
f 31/51/34 48/49/34 4/4/34
f 50/52/35 7/7/35 6/6/35
f 51/53/36 52/54/36 15/15/36
f 36/37/37 6/6/37 15/15/37
f 50/52/38 51/53/38 20/20/38
f 53/55/39 54/56/39 55/57/39
f 50/52/40 38/39/40 56/58/40
f 51/53/41 56/58/41 57/59/41
f 36/37/42 52/54/42 57/59/42
f 58/60/43 38/39/43 37/38/43
f 59/61/44 53/55/44 57/59/44
f 60/62/45 37/38/45 57/59/45
f 58/60/46 59/61/46 56/58/46
f 55/57/47 54/56/47 61/63/47
f 58/60/48 60/62/48 55/57/48
f 58/60/49 62/64/49 61/63/49
f 53/55/50 59/61/50 61/63/50
f 63/65/51 30/30/51 41/42/51
f 64/66/52 65/67/52 47/48/52
f 66/68/53 23/23/53 30/30/53
f 66/68/54 63/65/54 47/48/54
f 67/69/55 13/13/55 12/12/55
f 33/34/56 27/27/56 26/26/56
f 67/69/57 68/70/57 26/26/57
f 33/34/58 69/71/58 12/12/58
f 35/36/59 34/35/59 70/72/59
f 33/34/60 68/70/60 70/72/60
f 68/70/61 67/69/61 71/73/61
f 69/71/62 35/36/62 71/73/62
f 72/74/63 73/75/63 74/76/63
f 75/77/64 74/76/64 76/78/64
f 73/75/65 72/74/65 77/79/65
f 10/80/66 9/81/66 78/82/66
f 79/83/67 76/78/67 80/84/67
f 76/78/68 81/85/68 82/86/68
f 83/87/69 84/88/69 85/89/69
f 86/90/70 19/91/70 14/92/70
f 87/93/71 21/94/71 19/91/71
f 88/95/72 89/96/72 90/97/72
f 73/75/73 83/87/73 85/89/73
f 76/78/74 90/97/74 89/96/74
f 21/94/75 87/93/75 78/82/75
f 88/95/76 91/98/76 80/84/76
f 19/99/77 21/100/77 9/101/77
f 87/93/78 86/90/78 77/79/78
f 74/76/79 85/89/79 90/97/79
f 92/102/80 93/103/80 91/98/80
f 32/33/77 14/104/77 49/105/77
f 14/104/77 19/99/77 10/106/77
f 94/107/81 95/108/81 96/109/81
f 97/110/82 98/111/82 99/112/82
f 93/103/83 100/113/83 80/84/83
f 101/114/84 90/97/84 85/89/84
f 101/114/85 91/98/85 90/97/85
f 92/102/86 91/98/86 101/114/86
f 102/115/87 101/114/87 103/116/87
f 72/74/88 49/117/88 10/80/88
f 49/117/89 72/74/89 75/77/89
f 73/75/90 77/79/90 104/118/90
f 105/119/91 86/90/91 83/87/91
f 83/87/92 73/75/92 99/112/92
f 104/118/93 77/79/93 86/90/93
f 106/120/94 107/121/94 108/122/94
f 109/123/95 97/110/95 104/118/95
f 110/124/41 109/123/41 105/119/41
f 99/112/96 98/111/96 110/124/96
f 98/111/97 97/110/97 111/125/97
f 112/126/98 109/123/98 110/124/98
f 110/124/99 98/111/99 113/127/99
f 111/125/100 97/110/100 109/123/100
f 114/128/101 107/121/101 106/120/101
f 111/125/102 115/129/102 106/120/102
f 114/128/103 115/129/103 111/125/103
f 108/122/50 107/121/50 114/128/50
f 93/103/104 92/102/104 116/130/104
f 117/131/105 64/66/105 118/132/105
f 116/130/106 118/132/106 119/133/106
f 82/86/107 81/85/107 120/134/107
f 89/96/108 88/95/108 96/109/108
f 120/134/109 81/85/109 89/96/109
f 96/109/110 88/95/110 82/86/110
f 121/135/111 95/108/111 94/107/111
f 96/109/112 95/108/112 121/135/112
f 122/136/113 121/135/113 123/137/113
f 123/137/114 94/107/114 124/138/114
f 66/68/115 117/131/115 24/24/115
f 66/68/116 65/67/116 64/66/116
f 18/18/117 102/115/117 84/88/117
f 24/24/118 92/102/118 102/115/118
f 100/113/119 93/103/119 41/42/119
f 100/113/120 40/41/120 42/43/120
f 125/139/121 119/133/121 46/47/121
f 48/49/122 79/83/122 80/84/122
f 31/140/123 75/77/123 79/83/123
f 116/130/124 92/102/124 24/24/124
f 41/42/125 93/103/125 125/139/125
f 64/66/126 46/47/126 119/133/126
f 6/6/127 1/1/127 3/3/127
f 3/3/128 2/2/128 5/5/128
f 7/7/129 8/8/129 10/10/129
f 11/11/130 12/12/130 5/5/130
f 16/16/131 32/141/131 14/14/131
f 28/28/132 44/45/132 16/16/132
f 16/16/133 15/15/133 28/28/133
f 32/141/134 16/16/134 18/18/134
f 15/15/135 14/14/135 20/20/135
f 20/20/136 19/19/136 22/22/136
f 18/18/137 17/17/137 24/24/137
f 29/29/138 25/25/138 27/27/138
f 15/15/139 6/6/139 28/28/139
f 25/25/140 5/5/140 26/26/140
f 9/9/141 8/8/141 21/21/141
f 12/12/142 11/11/142 27/27/142
f 8/8/143 7/7/143 22/22/143
f 28/28/144 3/3/144 25/25/144
f 48/142/145 18/32/145 31/31/145
f 69/71/21 33/34/21 35/36/21
f 50/52/22 36/37/22 38/39/22
f 30/30/146 39/40/146 41/42/146
f 11/11/147 42/43/147 39/40/147
f 29/29/148 11/11/148 30/30/148
f 44/45/149 28/28/149 43/44/149
f 17/17/150 43/44/150 23/23/150
f 16/16/151 44/45/151 17/17/151
f 63/65/152 45/46/152 47/48/152
f 4/4/153 48/49/153 11/11/153
f 7/7/154 10/10/154 1/1/154
f 1/1/155 49/50/155 2/2/155
f 2/2/156 31/51/156 4/4/156
f 36/37/157 50/52/157 6/6/157
f 20/20/158 51/53/158 15/15/158
f 52/54/159 36/37/159 15/15/159
f 7/7/160 50/52/160 20/20/160
f 60/62/39 53/55/39 55/57/39
f 51/53/40 50/52/40 56/58/40
f 52/54/41 51/53/41 57/59/41
f 37/38/42 36/37/42 57/59/42
f 60/62/161 58/60/161 37/38/161
f 56/58/162 59/61/162 57/59/162
f 53/55/163 60/62/163 57/59/163
f 38/39/164 58/60/164 56/58/164
f 62/64/165 55/57/165 61/63/165
f 62/64/48 58/60/48 55/57/48
f 59/61/49 58/60/49 61/63/49
f 54/56/50 53/55/50 61/63/50
f 45/46/166 63/65/166 41/42/166
f 46/47/167 64/66/167 47/48/167
f 63/65/168 66/68/168 30/30/168
f 65/67/54 66/68/54 47/48/54
f 69/71/169 67/69/169 12/12/169
f 68/70/170 33/34/170 26/26/170
f 13/13/171 67/69/171 26/26/171
f 27/27/172 33/34/172 12/12/172
f 71/73/173 35/36/173 70/72/173
f 34/35/60 33/34/60 70/72/60
f 70/72/61 68/70/61 71/73/61
f 67/69/62 69/71/62 71/73/62
f 75/77/174 72/74/174 74/76/174
f 79/83/175 75/77/175 76/78/175
f 77/79/176 10/80/176 78/82/176
f 80/84/177 76/78/177 82/86/177
f 84/88/178 83/87/178 14/92/178
f 84/88/179 103/116/179 85/89/179
f 14/92/180 32/143/180 84/88/180
f 83/87/181 86/90/181 14/92/181
f 86/90/182 87/93/182 19/91/182
f 91/98/183 88/95/183 90/97/183
f 74/76/184 73/75/184 85/89/184
f 81/85/185 76/78/185 89/96/185
f 9/81/186 21/94/186 78/82/186
f 82/86/187 88/95/187 80/84/187
f 10/106/77 19/99/77 9/101/77
f 78/82/188 87/93/188 77/79/188
f 76/78/189 74/76/189 90/97/189
f 31/31/77 32/33/77 49/105/77
f 49/105/77 14/104/77 10/106/77
f 124/138/81 94/107/81 96/109/81
f 104/118/82 97/110/82 99/112/82
f 91/98/190 93/103/190 80/84/190
f 103/116/191 101/114/191 85/89/191
f 102/115/192 92/102/192 101/114/192
f 84/88/193 102/115/193 103/116/193
f 77/79/194 72/74/194 10/80/194
f 31/140/195 49/117/195 75/77/195
f 99/112/196 73/75/196 104/118/196
f 126/144/197 105/119/197 83/87/197
f 126/144/198 83/87/198 99/112/198
f 105/119/199 104/118/199 86/90/199
f 113/127/94 106/120/94 108/122/94
f 105/119/95 109/123/95 104/118/95
f 126/144/41 110/124/41 105/119/41
f 126/144/96 99/112/96 110/124/96
f 113/127/200 98/111/200 111/125/200
f 108/122/201 112/126/201 110/124/201
f 108/122/202 110/124/202 113/127/202
f 112/126/203 111/125/203 109/123/203
f 115/129/204 114/128/204 106/120/204
f 113/127/102 111/125/102 106/120/102
f 112/126/103 114/128/103 111/125/103
f 112/126/50 108/122/50 114/128/50
f 125/139/205 93/103/205 116/130/205
f 116/130/206 117/131/206 118/132/206
f 125/139/106 116/130/106 119/133/106
f 124/138/207 82/86/207 120/134/207
f 122/136/208 89/96/208 96/109/208
f 122/136/209 120/134/209 89/96/209
f 124/138/210 96/109/210 82/86/210
f 123/137/211 121/135/211 94/107/211
f 122/136/112 96/109/112 121/135/112
f 120/134/113 122/136/113 123/137/113
f 120/134/114 123/137/114 124/138/114
f 23/23/212 66/68/212 24/24/212
f 117/131/213 66/68/213 64/66/213
f 32/143/214 18/18/214 84/88/214
f 18/18/215 24/24/215 102/115/215
f 40/41/216 100/113/216 41/42/216
f 80/84/217 100/113/217 42/43/217
f 45/46/218 125/139/218 46/47/218
f 42/43/219 48/49/219 80/84/219
f 48/49/220 31/140/220 79/83/220
f 117/131/221 116/130/221 24/24/221
f 45/46/222 41/42/222 125/139/222
f 118/132/223 64/66/223 119/133/223
