# Blender v2.75 (sub 0) OBJ File: ''
# www.blender.org
mtllib torus.mtl
o Torus
v 0.980000 0.000000 0.000000
v 0.897990 0.197990 0.000000
v 0.700000 0.280000 0.000000
v 0.502010 0.197990 0.000000
v 0.420000 0.000000 0.000000
v 0.502010 -0.197990 0.000000
v 0.700000 -0.280000 0.000000
v 0.897990 -0.197990 0.000000
v 0.926901 0.000000 -0.318206
v 0.849335 0.197990 -0.291577
v 0.662072 0.280000 -0.227290
v 0.474810 0.197990 -0.163003
v 0.397244 0.000000 -0.136374
v 0.474810 -0.197990 -0.163003
v 0.662072 -0.280000 -0.227290
v 0.849335 -0.197990 -0.291577
v 0.773358 0.000000 -0.601929
v 0.708640 0.197990 -0.551557
v 0.552399 0.280000 -0.429949
v 0.396157 0.197990 -0.308341
v 0.331439 0.000000 -0.257969
v 0.396157 -0.197990 -0.308341
v 0.552399 -0.280000 -0.429949
v 0.708640 -0.197990 -0.551557
v 0.536009 0.000000 -0.820423
v 0.491154 0.197990 -0.751767
v 0.382864 0.280000 -0.586017
v 0.274574 0.197990 -0.420266
v 0.229718 0.000000 -0.351610
v 0.274574 -0.197990 -0.420266
v 0.382864 -0.280000 -0.586017
v 0.491154 -0.197990 -0.751767
v 0.240576 0.000000 -0.950013
v 0.220443 0.197990 -0.870512
v 0.171840 0.280000 -0.678581
v 0.123236 0.197990 -0.486649
v 0.103104 0.000000 -0.407148
v 0.123236 -0.197990 -0.486649
v 0.171840 -0.280000 -0.678581
v 0.220443 -0.197990 -0.870512
v -0.080928 0.000000 -0.976653
v -0.074155 0.197990 -0.894923
v -0.057806 0.280000 -0.697609
v -0.041456 0.197990 -0.500296
v -0.034683 0.000000 -0.418566
v -0.041456 -0.197990 -0.500296
v -0.057806 -0.280000 -0.697609
v -0.074155 -0.197990 -0.894923
v -0.393661 0.000000 -0.897458
v -0.360718 0.197990 -0.822356
v -0.281187 0.280000 -0.641042
v -0.201655 0.197990 -0.459728
v -0.168712 0.000000 -0.384625
v -0.201655 -0.197990 -0.459728
v -0.281187 -0.280000 -0.641042
v -0.360718 -0.197990 -0.822356
v -0.663736 0.000000 -0.721010
v -0.608192 0.197990 -0.660673
v -0.474097 0.280000 -0.515007
v -0.340002 0.197990 -0.369341
v -0.284458 0.000000 -0.309004
v -0.340002 -0.197990 -0.369341
v -0.474097 -0.280000 -0.515007
v -0.608192 -0.197990 -0.660673
v -0.861885 0.000000 -0.466428
v -0.789759 0.197990 -0.427396
v -0.615632 0.280000 -0.333163
v -0.441505 0.197990 -0.238930
v -0.369379 0.000000 -0.199898
v -0.441505 -0.197990 -0.238930
v -0.615632 -0.280000 -0.333163
v -0.789759 -0.197990 -0.427396
v -0.966634 0.000000 -0.161303
v -0.885743 0.197990 -0.147804
v -0.690453 0.280000 -0.115216
v -0.495164 0.197990 -0.082628
v -0.414272 0.000000 -0.069130
v -0.495164 -0.197990 -0.082628
v -0.690453 -0.280000 -0.115216
v -0.885743 -0.197990 -0.147804
v -0.966634 0.000000 0.161302
v -0.885743 0.197990 0.147804
v -0.690453 0.280000 0.115216
v -0.495164 0.197990 0.082628
v -0.414272 0.000000 0.069130
v -0.495164 -0.197990 0.082628
v -0.690453 -0.280000 0.115216
v -0.885743 -0.197990 0.147804
v -0.861885 0.000000 0.466428
v -0.789759 0.197990 0.427396
v -0.615632 0.280000 0.333163
v -0.441505 0.197990 0.238930
v -0.369379 0.000000 0.199898
v -0.441505 -0.197990 0.238930
v -0.615632 -0.280000 0.333163
v -0.789759 -0.197990 0.427396
v -0.663736 0.000000 0.721010
v -0.608192 0.197990 0.660673
v -0.474097 0.280000 0.515007
v -0.340002 0.197990 0.369341
v -0.284458 0.000000 0.309004
v -0.340002 -0.197990 0.369341
v -0.474097 -0.280000 0.515007
v -0.608192 -0.197990 0.660673
v -0.393661 0.000000 0.897458
v -0.360718 0.197990 0.822356
v -0.281187 0.280000 0.641042
v -0.201655 0.197990 0.459728
v -0.168712 0.000000 0.384625
v -0.201655 -0.197990 0.459728
v -0.281187 -0.280000 0.641042
v -0.360718 -0.197990 0.822356
v -0.080928 0.000000 0.976653
v -0.074156 0.197990 0.894923
v -0.057806 0.280000 0.697609
v -0.041456 0.197990 0.500296
v -0.034684 0.000000 0.418566
v -0.041456 -0.197990 0.500296
v -0.057806 -0.280000 0.697609
v -0.074156 -0.197990 0.894923
v 0.240576 0.000000 0.950013
v 0.220443 0.197990 0.870512
v 0.171840 0.280000 0.678581
v 0.123236 0.197990 0.486649
v 0.103104 0.000000 0.407148
v 0.123236 -0.197990 0.486649
v 0.171840 -0.280000 0.678581
v 0.220443 -0.197990 0.870512
v 0.536009 0.000000 0.820423
v 0.491154 0.197990 0.751767
v 0.382864 0.280000 0.586017
v 0.274574 0.197990 0.420266
v 0.229718 0.000000 0.351610
v 0.274574 -0.197990 0.420266
v 0.382864 -0.280000 0.586017
v 0.491154 -0.197990 0.751767
v 0.773358 0.000000 0.601928
v 0.708641 0.197990 0.551557
v 0.552399 0.280000 0.429949
v 0.396157 0.197990 0.308341
v 0.331439 0.000000 0.257969
v 0.396157 -0.197990 0.308341
v 0.552399 -0.280000 0.429949
v 0.708641 -0.197990 0.551557
v 0.926901 0.000000 0.318206
v 0.849334 0.197990 0.291577
v 0.662072 0.280000 0.227290
v 0.474810 0.197990 0.163003
v 0.397243 0.000000 0.136374
v 0.474810 -0.197990 0.163003
v 0.662072 -0.280000 0.227290
v 0.849334 -0.197990 0.291577
vt 0.055000 0.616868
vt 0.115504 0.627833
vt 0.104560 0.706374
vt 0.543299 0.114257
vt 0.583109 0.144160
vt 0.557039 0.203425
vt 0.635071 0.175082
vt 0.739416 0.907935
vt 0.695360 0.896970
vt 0.690242 0.860236
vt 0.634857 0.907935
vt 0.392073 0.261118
vt 0.442279 0.262326
vt 0.424381 0.324414
vt 0.502589 0.270207
vt 0.000000 0.706374
vt 0.010944 0.627833
vt 0.077593 0.545354
vt 0.136206 0.562303
vt 0.599295 0.053177
vt 0.626759 0.096548
vt 0.666375 0.140936
vt 0.694937 0.160341
vt 0.668747 0.188908
vt 0.705043 0.927619
vt 0.646430 0.944569
vt 0.389726 0.215342
vt 0.439007 0.198496
vt 0.498391 0.188324
vt 0.290594 0.560364
vt 0.230964 0.547231
vt 0.258340 0.495787
vt 0.108386 0.495787
vt 0.164422 0.516884
vt 0.671776 0.013665
vt 0.683259 0.065747
vt 0.706894 0.118847
vt 0.754336 0.869470
vt 0.797771 0.861990
vt 0.790269 0.896148
vt 0.858895 0.869470
vt 0.372450 0.173278
vt 0.414918 0.139842
vt 0.467489 0.113080
vt 0.274366 0.627086
vt 0.213254 0.620046
vt 0.207129 0.706343
vt 0.164422 0.712902
vt 0.170034 0.633827
vt 0.752887 0.000000
vt 0.746486 0.055095
vt 0.752238 0.111208
vt 0.757437 0.823681
vt 0.800366 0.823681
vt 0.861997 0.823681
vt 0.342118 0.139484
vt 0.372623 0.092720
vt 0.413231 0.052630
vt 0.268754 0.706161
vt 0.213254 0.796769
vt 0.170034 0.795761
vt 0.833838 0.013665
vt 0.809590 0.065747
vt 0.797493 0.118847
vt 0.754336 0.777892
vt 0.797771 0.785372
vt 0.858895 0.777892
vt 0.302016 0.117623
vt 0.316705 0.062236
vt 0.341497 0.013524
vt 0.274366 0.789020
vt 0.230964 0.881525
vt 0.186262 0.873424
vt 0.905858 0.053178
vt 0.865730 0.096548
vt 0.837755 0.140937
vt 0.745368 0.737064
vt 0.790268 0.751214
vt 0.849927 0.737064
vt 0.256490 0.110062
vt 0.253224 0.051694
vt 0.260061 0.000000
vt 0.290594 0.866684
vt 0.994965 0.102889
vt 0.961142 0.114257
vt 0.908825 0.144161
vt 0.868661 0.175082
vt 0.654671 0.737064
vt 0.640808 0.705623
vt 0.700467 0.691473
vt 0.778670 0.724910
vt 0.836065 0.705623
vt 0.210474 0.117623
vt 0.189059 0.062236
vt 0.177747 0.013524
vt 0.315680 0.930736
vt 0.258340 0.951427
vt 0.551573 0.580650
vt 0.508137 0.588130
vt 0.524179 0.515099
vt 0.993699 0.190284
vt 0.934204 0.203425
vt 0.886861 0.217584
vt 0.631840 0.664796
vt 0.692964 0.657316
vt 0.736400 0.664796
vt 0.745368 0.705623
vt 0.168953 0.139484
vt 0.131163 0.092720
vt 0.103476 0.052630
vt 0.628739 0.515099
vt 0.612697 0.588130
vt 0.545519 0.670038
vt 0.502589 0.670038
vt 1.000000 0.273021
vt 0.939116 0.267920
vt 0.890384 0.263837
vt 0.628739 0.619007
vt 0.690369 0.619007
vt 0.733298 0.619007
vt 0.136428 0.173278
vt 0.085810 0.139842
vt 0.045296 0.113080
vt 0.607149 0.670038
vt 0.551573 0.759425
vt 0.508137 0.751945
vt 0.979364 0.353500
vt 0.923029 0.330655
vt 0.878847 0.308828
vt 0.631840 0.573217
vt 0.692964 0.580698
vt 0.736400 0.573217
vt 0.116423 0.215342
vt 0.057916 0.198496
vt 0.009511 0.188324
vt 0.612697 0.751945
vt 0.569080 0.839126
vt 0.524179 0.824977
vt 0.934026 0.423001
vt 0.887688 0.384832
vt 0.853502 0.347682
vt 0.640808 0.532390
vt 0.700467 0.546540
vt 0.745368 0.532390
vt 0.111106 0.261118
vt 0.050502 0.262326
vt 0.000000 0.270207
vt 0.628739 0.824976
vt 0.894298 0.495478
vt 0.868899 0.473993
vt 0.836920 0.424581
vt 0.817094 0.376188
vt 0.654671 0.500949
vt 0.712065 0.520235
vt 0.817096 0.546540
vt 0.757437 0.532390
vt 0.771300 0.500949
vt 0.121053 0.305646
vt 0.064372 0.324415
vt 0.017793 0.349857
vt 0.441852 0.580531
vt 0.382221 0.565690
vt 0.409598 0.495787
vt 0.364511 0.650446
vt 0.321292 0.651454
vt 0.791041 0.500949
vt 0.776229 0.445594
vt 0.773568 0.391258
vt 0.853029 0.573217
vt 0.809593 0.580698
vt 0.748469 0.573217
vt 0.145186 0.344099
vt 0.098023 0.378034
vt 0.060962 0.418642
vt 0.425624 0.658195
vt 0.358386 0.740872
vt 0.315680 0.734313
vt 0.708890 0.500949
vt 0.712190 0.445594
vt 0.727642 0.391258
vt 0.849927 0.619007
vt 0.806998 0.619007
vt 0.745368 0.619007
vt 0.180890 0.372312
vt 0.147808 0.417373
vt 0.124829 0.469109
vt 0.420012 0.741053
vt 0.364511 0.827168
vt 0.321292 0.813387
vt 0.631346 0.473993
vt 0.651743 0.424581
vt 0.684293 0.376188
vt 0.853029 0.664796
vt 0.809593 0.657316
vt 0.748469 0.664796
vt 0.224296 0.387226
vt 0.208333 0.438170
vt 0.202473 0.495787
vt 0.425624 0.820128
vt 0.077593 0.950434
vt 0.136206 0.933484
vt 0.164422 0.978903
vt 0.566815 0.423001
vt 0.601440 0.384832
vt 0.648217 0.347682
vt 0.861997 0.705623
vt 0.817096 0.691473
vt 0.757437 0.705623
vt 0.270700 0.387226
vt 0.273039 0.438170
vt 0.285480 0.495787
vt 0.441852 0.886850
vt 0.382221 0.899984
vt 0.055000 0.878919
vt 0.115504 0.867954
vt 0.522287 0.353499
vt 0.566730 0.330654
vt 0.623324 0.308828
vt 0.658919 0.300805
vt 0.695360 0.784663
vt 0.634857 0.773698
vt 0.646430 0.737064
vt 0.315074 0.372312
vt 0.334913 0.417373
vt 0.364855 0.469108
vt 0.466937 0.933989
vt 0.409598 0.951427
vt 0.043057 0.793205
vt 0.104560 0.789414
vt 0.502589 0.273020
vt 0.551375 0.267920
vt 0.612313 0.263837
vt 0.739416 0.773698
vt 0.733298 0.817605
vt 0.690242 0.821397
vt 0.628739 0.817605
vt 0.352609 0.344099
vt 0.387251 0.378034
vt 0.431996 0.418642
vt 0.000000 0.789414
vt 0.043057 0.702582
vt 0.509856 0.190284
vt 0.616375 0.217584
vt 0.733298 0.864028
vt 0.628739 0.864028
vt 0.379237 0.305646
vt 0.479628 0.349857
vt 0.315680 0.513226
vt 0.745368 0.910298
vt 0.849927 0.910298
vt 0.934632 0.036231
vt 0.712065 0.717778
vt 0.569080 0.500949
vt 0.965372 0.439829
vt 0.828694 0.520235
vt 0.466937 0.516478
vt 0.337520 0.573790
vt 0.861997 0.532390
vt 0.108386 1.000000
vt 0.679745 0.333311
vt 0.705043 0.754014
vt 0.010944 0.867954
vn 0.913100 0.378200 -0.152400
vn 0.381900 0.922000 -0.063700
vn -0.381900 0.922000 0.063700
vn -0.913100 0.378200 0.152400
vn -0.913100 -0.378200 0.152400
vn -0.381900 -0.922000 0.063700
vn 0.381900 -0.922000 -0.063700
vn 0.913100 -0.378200 -0.152400
vn 0.814100 0.378200 -0.440600
vn 0.340500 0.922000 -0.184300
vn -0.340500 0.922000 0.184300
vn -0.814100 0.378200 0.440600
vn -0.814100 -0.378200 0.440600
vn -0.340500 -0.922000 0.184300
vn 0.340500 -0.922000 -0.184300
vn 0.814100 -0.378200 -0.440600
vn 0.627000 0.378200 -0.681100
vn 0.262200 0.922000 -0.284900
vn -0.262200 0.922000 0.284900
vn -0.627000 0.378200 0.681100
vn -0.627000 -0.378200 0.681100
vn -0.262200 -0.922000 0.284900
vn 0.262200 -0.922000 -0.284900
vn 0.627000 -0.378200 -0.681100
vn 0.371900 0.378200 -0.847700
vn 0.155500 0.922000 -0.354600
vn -0.155500 0.922000 0.354600
vn -0.371900 0.378200 0.847700
vn -0.371900 -0.378200 0.847700
vn -0.155500 -0.922000 0.354600
vn 0.155500 -0.922000 -0.354600
vn 0.371900 -0.378200 -0.847700
vn 0.076400 0.378200 -0.922600
vn 0.032000 0.922000 -0.385900
vn -0.032000 0.922000 0.385900
vn -0.076400 0.378200 0.922600
vn -0.076400 -0.378200 0.922600
vn -0.032000 -0.922000 0.385900
vn 0.032000 -0.922000 -0.385900
vn 0.076400 -0.378200 -0.922600
vn -0.227300 0.378200 -0.897400
vn -0.095000 0.922000 -0.375300
vn 0.095000 0.922000 0.375300
vn 0.227300 0.378200 0.897400
vn 0.227300 -0.378200 0.897400
vn 0.095000 -0.922000 0.375300
vn -0.095000 -0.922000 -0.375300
vn -0.227300 -0.378200 -0.897400
vn -0.506300 0.378200 -0.775000
vn -0.211800 0.922000 -0.324100
vn 0.211800 0.922000 0.324100
vn 0.506300 0.378200 0.775000
vn 0.506300 -0.378200 0.775000
vn 0.211800 -0.922000 0.324100
vn -0.211800 -0.922000 -0.324100
vn -0.506300 -0.378200 -0.775000
vn -0.730500 0.378200 -0.568600
vn -0.305500 0.922000 -0.237800
vn 0.305500 0.922000 0.237800
vn 0.730500 0.378200 0.568600
vn 0.730500 -0.378200 0.568600
vn 0.305500 -0.922000 0.237800
vn -0.305500 -0.922000 -0.237800
vn -0.730500 -0.378200 -0.568600
vn -0.875600 0.378200 -0.300600
vn -0.366200 0.922000 -0.125700
vn 0.366200 0.922000 0.125700
vn 0.875600 0.378200 0.300600
vn 0.875600 -0.378200 0.300600
vn 0.366200 -0.922000 0.125700
vn -0.366200 -0.922000 -0.125700
vn -0.875600 -0.378200 -0.300600
vn -0.925700 0.378200 -0.000000
vn -0.387200 0.922000 -0.000000
vn 0.387200 0.922000 0.000000
vn 0.925700 0.378200 0.000000
vn 0.925700 -0.378200 0.000000
vn 0.387200 -0.922000 0.000000
vn -0.387200 -0.922000 -0.000000
vn -0.925700 -0.378200 -0.000000
vn -0.875600 0.378200 0.300600
vn -0.366200 0.922000 0.125700
vn 0.366200 0.922000 -0.125700
vn 0.875600 0.378200 -0.300600
vn 0.875600 -0.378200 -0.300600
vn 0.366200 -0.922000 -0.125700
vn -0.366200 -0.922000 0.125700
vn -0.875600 -0.378200 0.300600
vn -0.730500 0.378200 0.568600
vn -0.305500 0.922000 0.237800
vn 0.305500 0.922000 -0.237800
vn 0.730500 0.378200 -0.568600
vn 0.730500 -0.378200 -0.568600
vn 0.305500 -0.922000 -0.237800
vn -0.305500 -0.922000 0.237800
vn -0.730500 -0.378200 0.568600
vn -0.506300 0.378200 0.775000
vn -0.211800 0.922000 0.324100
vn 0.211800 0.922000 -0.324100
vn 0.506300 0.378200 -0.775000
vn 0.506300 -0.378200 -0.775000
vn 0.211800 -0.922000 -0.324100
vn -0.211800 -0.922000 0.324100
vn -0.506300 -0.378200 0.775000
vn -0.227300 0.378200 0.897400
vn -0.095000 0.922000 0.375300
vn 0.095000 0.922000 -0.375300
vn 0.227300 0.378200 -0.897400
vn 0.227300 -0.378200 -0.897400
vn 0.095000 -0.922000 -0.375300
vn -0.095000 -0.922000 0.375300
vn -0.227300 -0.378200 0.897400
vn 0.076400 0.378200 0.922600
vn 0.032000 0.922000 0.385900
vn -0.032000 0.922000 -0.385900
vn -0.076400 0.378200 -0.922600
vn -0.076400 -0.378200 -0.922600
vn -0.032000 -0.922000 -0.385900
vn 0.032000 -0.922000 0.385900
vn 0.076400 -0.378200 0.922600
vn 0.371900 0.378200 0.847700
vn 0.155500 0.922000 0.354600
vn -0.155500 0.922000 -0.354600
vn -0.371900 0.378200 -0.847700
vn -0.371900 -0.378200 -0.847700
vn -0.155500 -0.922000 -0.354600
vn 0.155500 -0.922000 0.354600
vn 0.371900 -0.378200 0.847700
vn 0.627000 0.378200 0.681100
vn 0.262200 0.922000 0.284900
vn -0.262200 0.922000 -0.284900
vn -0.627000 0.378200 -0.681100
vn -0.627000 -0.378200 -0.681100
vn -0.262200 -0.922000 -0.284900
vn 0.262200 -0.922000 0.284900
vn 0.627000 -0.378200 0.681100
vn 0.814100 0.378200 0.440600
vn 0.340500 0.922000 0.184300
vn -0.340500 0.922000 -0.184300
vn -0.814100 0.378200 -0.440600
vn -0.814100 -0.378200 -0.440600
vn -0.340500 -0.922000 -0.184300
vn 0.340500 -0.922000 0.184300
vn 0.814100 -0.378200 0.440600
vn 0.913100 0.378200 0.152400
vn 0.381900 0.922000 0.063700
vn -0.381900 0.922000 -0.063700
vn -0.913100 0.378200 -0.152400
vn -0.913100 -0.378200 -0.152400
vn -0.381900 -0.922000 -0.063700
vn 0.381900 -0.922000 0.063700
vn 0.913100 -0.378200 0.152400
usemtl None
s off
f 9/1/1 10/2/1 2/3/1
f 10/4/2 11/5/2 3/6/2
f 3/6/3 11/5/3 12/7/3
f 12/8/4 13/9/4 5/10/4
f 5/10/5 13/9/5 14/11/5
f 14/12/6 15/13/6 7/14/6
f 7/14/7 15/13/7 16/15/7
f 8/16/8 16/17/8 9/1/8
f 17/18/9 18/19/9 10/2/9
f 18/20/10 19/21/10 11/5/10
f 19/21/11 20/22/11 12/7/11
f 20/22/12 21/23/12 13/24/12
f 13/9/13 21/25/13 22/26/13
f 14/12/14 22/27/14 23/28/14
f 15/13/15 23/28/15 24/29/15
f 24/30/16 17/31/16 9/32/16
f 17/18/17 25/33/17 26/34/17
f 18/20/18 26/35/18 27/36/18
f 19/21/19 27/36/19 28/37/19
f 28/38/20 29/39/20 21/40/20
f 21/40/21 29/39/21 30/41/21
f 30/42/22 31/43/22 23/28/22
f 31/43/23 32/44/23 24/29/23
f 32/45/24 25/46/24 17/31/24
f 33/47/25 34/48/25 26/49/25
f 34/50/26 35/51/26 27/36/26
f 27/36/27 35/51/27 36/52/27
f 36/53/28 37/54/28 29/39/28
f 37/54/29 38/55/29 30/41/29
f 38/56/30 39/57/30 31/43/30
f 31/43/31 39/57/31 40/58/31
f 40/59/32 33/47/32 25/46/32
f 41/60/33 42/61/33 34/48/33
f 42/62/34 43/63/34 35/51/34
f 43/63/35 44/64/35 36/52/35
f 44/65/36 45/66/36 37/54/36
f 45/66/37 46/67/37 38/55/37
f 38/56/38 46/68/38 47/69/38
f 47/69/39 48/70/39 40/58/39
f 48/71/40 41/60/40 33/47/40
f 49/72/41 50/73/41 42/61/41
f 50/74/42 51/75/42 43/63/42
f 51/75/43 52/76/43 44/64/43
f 52/77/44 53/78/44 45/66/44
f 53/78/45 54/79/45 46/67/45
f 54/80/46 55/81/46 47/69/46
f 47/69/47 55/81/47 56/82/47
f 56/83/48 49/72/48 41/60/48
f 57/84/49 58/85/49 50/74/49
f 58/85/50 59/86/50 51/75/50
f 59/86/51 60/87/51 52/76/51
f 52/88/52 60/89/52 61/90/52
f 61/91/53 62/92/53 54/79/53
f 54/80/54 62/93/54 63/94/54
f 63/94/55 64/95/55 56/82/55
f 56/83/56 64/96/56 57/97/56
f 65/98/57 66/99/57 58/100/57
f 66/101/58 67/102/58 59/86/58
f 67/102/59 68/103/59 60/87/59
f 68/104/60 69/105/60 61/90/60
f 69/105/61 70/106/61 62/107/61
f 62/93/62 70/108/62 71/109/62
f 71/109/63 72/110/63 64/95/63
f 64/111/64 72/112/64 65/98/64
f 73/113/65 74/114/65 66/99/65
f 74/115/66 75/116/66 67/102/66
f 67/102/67 75/116/67 76/117/67
f 76/118/68 77/119/68 69/105/68
f 77/119/69 78/120/69 70/106/69
f 78/121/70 79/122/70 71/109/70
f 79/122/71 80/123/71 72/110/71
f 80/124/72 73/113/72 65/98/72
f 81/125/73 82/126/73 74/114/73
f 74/115/74 82/127/74 83/128/74
f 75/116/75 83/128/75 84/129/75
f 76/118/76 84/130/76 85/131/76
f 85/131/77 86/132/77 78/120/77
f 86/133/78 87/134/78 79/122/78
f 87/134/79 88/135/79 80/123/79
f 80/124/80 88/136/80 81/125/80
f 89/137/81 90/138/81 82/126/81
f 90/139/82 91/140/82 83/128/82
f 91/140/83 92/141/83 84/129/83
f 92/142/84 93/143/84 85/131/84
f 85/131/85 93/143/85 94/144/85
f 86/133/86 94/145/86 95/146/86
f 95/146/87 96/147/87 88/135/87
f 96/148/88 89/137/88 81/125/88
f 97/149/89 98/150/89 90/139/89
f 90/139/90 98/150/90 99/151/90
f 91/140/91 99/151/91 100/152/91
f 92/142/92 100/153/92 101/154/92
f 101/155/93 102/156/93 94/157/93
f 102/158/94 103/159/94 95/146/94
f 103/159/95 104/160/95 96/147/95
f 104/161/96 97/162/96 89/163/96
f 97/162/97 105/164/97 106/165/97
f 106/166/98 107/167/98 99/151/98
f 99/151/99 107/167/99 108/168/99
f 108/169/100 109/170/100 101/155/100
f 109/170/101 110/171/101 102/156/101
f 110/172/102 111/173/102 103/159/102
f 111/173/103 112/174/103 104/160/103
f 112/175/104 105/164/104 97/162/104
f 105/164/105 113/176/105 114/177/105
f 114/178/106 115/179/106 107/167/106
f 107/167/107 115/179/107 116/180/107
f 116/181/108 117/182/108 109/170/108
f 117/182/109 118/183/109 110/171/109
f 118/184/110 119/185/110 111/173/110
f 119/185/111 120/186/111 112/174/111
f 120/187/112 113/176/112 105/164/112
f 113/176/113 121/188/113 122/189/113
f 122/190/114 123/191/114 115/179/114
f 115/179/115 123/191/115 124/192/115
f 124/193/116 125/194/116 117/182/116
f 125/194/117 126/195/117 118/183/117
f 126/196/118 127/197/118 119/185/118
f 127/197/119 128/198/119 120/186/119
f 120/187/120 128/199/120 121/188/120
f 129/200/121 130/201/121 122/202/121
f 130/203/122 131/204/122 123/191/122
f 131/204/123 132/205/123 124/192/123
f 132/206/124 133/207/124 125/194/124
f 125/194/125 133/207/125 134/208/125
f 126/196/126 134/209/126 135/210/126
f 135/210/127 136/211/127 128/198/127
f 136/212/128 129/213/128 121/188/128
f 137/214/129 138/215/129 130/201/129
f 130/203/130 138/216/130 139/217/130
f 139/217/131 140/218/131 132/205/131
f 132/205/132 140/218/132 141/219/132
f 141/220/133 142/221/133 134/222/133
f 142/223/134 143/224/134 135/210/134
f 143/224/135 144/225/135 136/211/135
f 144/226/136 137/227/136 129/213/136
f 145/228/137 146/229/137 138/215/137
f 146/230/138 147/231/138 139/217/138
f 139/217/139 147/231/139 148/232/139
f 140/233/140 148/234/140 149/235/140
f 149/235/141 150/236/141 142/221/141
f 150/237/142 151/238/142 143/224/142
f 151/238/143 152/239/143 144/225/143
f 152/240/144 145/228/144 137/214/144
f 145/228/145 1/241/145 2/3/145
f 146/230/146 2/242/146 3/6/146
f 3/6/147 4/243/147 148/232/147
f 4/244/148 5/10/148 149/235/148
f 149/235/149 5/10/149 6/245/149
f 6/246/150 7/14/150 151/238/150
f 7/14/151 8/247/151 152/239/151
f 8/16/152 1/241/152 145/228/152
f 1/241/1 9/1/1 2/3/1
f 2/242/2 10/4/2 3/6/2
f 4/243/3 3/6/3 12/7/3
f 4/244/4 12/8/4 5/10/4
f 6/245/5 5/10/5 14/11/5
f 6/246/6 14/12/6 7/14/6
f 8/247/7 7/14/7 16/15/7
f 1/241/8 8/16/8 9/1/8
f 9/1/9 17/18/9 10/2/9
f 10/4/10 18/20/10 11/5/10
f 11/5/11 19/21/11 12/7/11
f 12/7/12 20/22/12 13/24/12
f 14/11/13 13/9/13 22/26/13
f 15/13/14 14/12/14 23/28/14
f 16/15/15 15/13/15 24/29/15
f 16/248/16 24/30/16 9/32/16
f 18/19/17 17/18/17 26/34/17
f 19/21/18 18/20/18 27/36/18
f 20/22/19 19/21/19 28/37/19
f 20/249/20 28/38/20 21/40/20
f 22/250/21 21/40/21 30/41/21
f 22/27/22 30/42/22 23/28/22
f 23/28/23 31/43/23 24/29/23
f 24/30/24 32/45/24 17/31/24
f 25/46/25 33/47/25 26/49/25
f 26/35/26 34/50/26 27/36/26
f 28/37/27 27/36/27 36/52/27
f 28/38/28 36/53/28 29/39/28
f 29/39/29 37/54/29 30/41/29
f 30/42/30 38/56/30 31/43/30
f 32/44/31 31/43/31 40/58/31
f 32/45/32 40/59/32 25/46/32
f 33/47/33 41/60/33 34/48/33
f 34/50/34 42/62/34 35/51/34
f 35/51/35 43/63/35 36/52/35
f 36/53/36 44/65/36 37/54/36
f 37/54/37 45/66/37 38/55/37
f 39/57/38 38/56/38 47/69/38
f 39/57/39 47/69/39 40/58/39
f 40/59/40 48/71/40 33/47/40
f 41/60/41 49/72/41 42/61/41
f 42/62/42 50/74/42 43/63/42
f 43/63/43 51/75/43 44/64/43
f 44/65/44 52/77/44 45/66/44
f 45/66/45 53/78/45 46/67/45
f 46/68/46 54/80/46 47/69/46
f 48/70/47 47/69/47 56/82/47
f 48/71/48 56/83/48 41/60/48
f 49/251/49 57/84/49 50/74/49
f 50/74/50 58/85/50 51/75/50
f 51/75/51 59/86/51 52/76/51
f 53/252/52 52/88/52 61/90/52
f 53/78/53 61/91/53 54/79/53
f 55/81/54 54/80/54 63/94/54
f 55/81/55 63/94/55 56/82/55
f 49/72/56 56/83/56 57/97/56
f 57/253/57 65/98/57 58/100/57
f 58/85/58 66/101/58 59/86/58
f 59/86/59 67/102/59 60/87/59
f 60/89/60 68/104/60 61/90/60
f 61/90/61 69/105/61 62/107/61
f 63/94/62 62/93/62 71/109/62
f 63/94/63 71/109/63 64/95/63
f 57/253/64 64/111/64 65/98/64
f 65/98/65 73/113/65 66/99/65
f 66/101/66 74/115/66 67/102/66
f 68/103/67 67/102/67 76/117/67
f 68/104/68 76/118/68 69/105/68
f 69/105/69 77/119/69 70/106/69
f 70/108/70 78/121/70 71/109/70
f 71/109/71 79/122/71 72/110/71
f 72/112/72 80/124/72 65/98/72
f 73/113/73 81/125/73 74/114/73
f 75/116/74 74/115/74 83/128/74
f 76/117/75 75/116/75 84/129/75
f 77/119/76 76/118/76 85/131/76
f 77/119/77 85/131/77 78/120/77
f 78/121/78 86/133/78 79/122/78
f 79/122/79 87/134/79 80/123/79
f 73/113/80 80/124/80 81/125/80
f 81/125/81 89/137/81 82/126/81
f 82/127/82 90/139/82 83/128/82
f 83/128/83 91/140/83 84/129/83
f 84/130/84 92/142/84 85/131/84
f 86/132/85 85/131/85 94/144/85
f 87/134/86 86/133/86 95/146/86
f 87/134/87 95/146/87 88/135/87
f 88/136/88 96/148/88 81/125/88
f 89/254/89 97/149/89 90/139/89
f 91/140/90 90/139/90 99/151/90
f 92/141/91 91/140/91 100/152/91
f 93/143/92 92/142/92 101/154/92
f 93/255/93 101/155/93 94/157/93
f 94/145/94 102/158/94 95/146/94
f 95/146/95 103/159/95 96/147/95
f 96/256/96 104/161/96 89/163/96
f 98/257/97 97/162/97 106/165/97
f 98/150/98 106/166/98 99/151/98
f 100/152/99 99/151/99 108/168/99
f 100/258/100 108/169/100 101/155/100
f 101/155/101 109/170/101 102/156/101
f 102/158/102 110/172/102 103/159/102
f 103/159/103 111/173/103 104/160/103
f 104/161/104 112/175/104 97/162/104
f 106/165/105 105/164/105 114/177/105
f 106/166/106 114/178/106 107/167/106
f 108/168/107 107/167/107 116/180/107
f 108/169/108 116/181/108 109/170/108
f 109/170/109 117/182/109 110/171/109
f 110/172/110 118/184/110 111/173/110
f 111/173/111 119/185/111 112/174/111
f 112/175/112 120/187/112 105/164/112
f 114/177/113 113/176/113 122/189/113
f 114/178/114 122/190/114 115/179/114
f 116/180/115 115/179/115 124/192/115
f 116/181/116 124/193/116 117/182/116
f 117/182/117 125/194/117 118/183/117
f 118/184/118 126/196/118 119/185/118
f 119/185/119 127/197/119 120/186/119
f 113/176/120 120/187/120 121/188/120
f 121/259/121 129/200/121 122/202/121
f 122/190/122 130/203/122 123/191/122
f 123/191/123 131/204/123 124/192/123
f 124/193/124 132/206/124 125/194/124
f 126/195/125 125/194/125 134/208/125
f 127/197/126 126/196/126 135/210/126
f 127/197/127 135/210/127 128/198/127
f 128/199/128 136/212/128 121/188/128
f 129/200/129 137/214/129 130/201/129
f 131/204/130 130/203/130 139/217/130
f 131/204/131 139/217/131 132/205/131
f 133/260/132 132/205/132 141/219/132
f 133/261/133 141/220/133 134/222/133
f 134/209/134 142/223/134 135/210/134
f 135/210/135 143/224/135 136/211/135
f 136/212/136 144/226/136 129/213/136
f 137/214/137 145/228/137 138/215/137
f 138/216/138 146/230/138 139/217/138
f 140/218/139 139/217/139 148/232/139
f 141/220/140 140/233/140 149/235/140
f 141/220/141 149/235/141 142/221/141
f 142/223/142 150/237/142 143/224/142
f 143/224/143 151/238/143 144/225/143
f 144/262/144 152/240/144 137/214/144
f 146/229/145 145/228/145 2/3/145
f 147/231/146 146/230/146 3/6/146
f 147/231/147 3/6/147 148/232/147
f 148/234/148 4/244/148 149/235/148
f 150/236/149 149/235/149 6/245/149
f 150/237/150 6/246/150 151/238/150
f 151/238/151 7/14/151 152/239/151
f 152/240/152 8/16/152 145/228/152
